<?xml version="1.0" encoding="UTF-8" standalone="no"?>
<!-- Created with Inkscape (http://www.inkscape.org/) -->

<svg
   version="1.1"
   id="svg1"
   width="1729.3333"
   height="1588"
   viewBox="0 0 1729.3333 1588"
   sodipodi:docname="dog9.svg"
   inkscape:version="1.3 (0e150ed6c4, 2023-07-21)"
   inkscape:export-filename="dog9.png"
   inkscape:export-xdpi="96"
   inkscape:export-ydpi="96"
   xmlns:inkscape="http://www.inkscape.org/namespaces/inkscape"
   xmlns:sodipodi="http://sodipodi.sourceforge.net/DTD/sodipodi-0.dtd"
   xmlns="http://www.w3.org/2000/svg"
   xmlns:svg="http://www.w3.org/2000/svg">
  <defs
     id="defs1" />
  <sodipodi:namedview
     id="namedview1"
     pagecolor="#ffffff"
     bordercolor="#000000"
     borderopacity="0.25"
     inkscape:showpageshadow="2"
     inkscape:pageopacity="0.0"
     inkscape:pagecheckerboard="0"
     inkscape:deskcolor="#d1d1d1"
     showgrid="false"
     inkscape:zoom="0.440118"
     inkscape:cx="961.10589"
     inkscape:cy="1138.3311"
     inkscape:window-width="1920"
     inkscape:window-height="1017"
     inkscape:window-x="-8"
     inkscape:window-y="-8"
     inkscape:window-maximized="1"
     inkscape:current-layer="g1" />
  <g
     inkscape:groupmode="layer"
     inkscape:label="Body"
     id="g1">
    <path
       id="path15"
       style="fill:#a94f36;stroke-width:1.03441"
       inkscape:label="BodyInfill"
       d="M 1110.3594 736.11523 L 1085.0703 736.26172 L 1059.7812 736.41016 L 1041.4414 746.41211 C 1025.8873 754.89539 1022.4433 757.38317 1018.7715 762.79102 C 1016.3903 766.29796 1011.7837 773.06735 1008.5352 777.83398 C 1003.1656 785.71296 1002.3246 788.18236 999.28125 805.01172 C 996.1194 822.49599 996.02612 824.65655 997.5957 843.90039 C 999.25388 864.23184 999.27751 864.32282 1008.6289 887.38672 C 1013.7832 900.09895 1019.639 912.6013 1021.6406 915.16797 C 1023.6422 917.73463 1027.5854 923.13463 1030.4043 927.16797 C 1033.2232 931.20127 1036.3762 935.29594 1037.4102 936.26758 C 1038.4444 937.23922 1041.2556 940.70324 1043.6582 943.9668 C 1047.3751 949.01578 1050.7248 951.17821 1066.123 958.46484 C 1086.8375 968.26709 1085.7318 968.12549 1117.8086 965.11914 L 1139.6699 963.07031 L 1149.4922 955.45117 C 1165.703 942.8779 1167.3051 941.36124 1169.5078 936.5 C 1170.6707 933.93333 1172.6185 929.72415 1173.8379 927.14648 C 1181.8196 910.27428 1184.4936 899.27748 1186.3398 875.72656 C 1187.26 864.05276 1187.6688 847.00065 1187.2598 837.83398 C 1186.5486 821.88973 1186.1897 820.31244 1178.9453 801.43359 C 1171.8748 783.00838 1170.6854 780.91883 1161.0371 769.92969 C 1151.3406 758.88564 1149.4602 757.47918 1130.5312 747.13672 L 1110.3594 736.11523 z M 244.17969 841.88672 C 243.81994 842.20023 243.41902 842.46668 243.07227 842.79492 C 231.12807 854.10134 220.06268 866.37012 209.73242 879.16797 C 206.82471 882.77024 203.38651 887.56667 201.70508 890.5 C 200.02366 893.43333 197.22974 897.63399 195.49609 899.83398 C 193.76247 902.03398 191.90266 904.73399 191.36328 905.83398 C 190.8239 906.93398 189.1126 909.63399 187.56055 911.83398 C 186.00849 914.03398 184.99974 915.79654 183.8125 917.83398 C 178.87682 926.30426 174.40019 935.03418 169.79297 943.6875 C 164.68777 953.27611 159.17431 962.67085 154.69727 972.56836 C 151.68368 979.23057 149.17926 986.12064 146.80664 993.03711 C 145.22502 997.64772 143.69365 1002.2907 142.58398 1007.0371 C 140.98376 1013.8817 140.05528 1018.3007 139.0918 1027.834 C 136.38935 1054.5738 138.94046 1068.5101 143.19922 1088.2363 C 143.47906 1089.5325 144.09909 1090.731 144.58984 1091.9629 C 146.04366 1095.6123 147.48458 1099.2754 149.18945 1102.8145 C 151.00306 1106.5792 153.55919 1111.2673 155.16602 1113.834 C 161.8431 1124.4996 173.35882 1140.0933 176.76953 1143.0879 C 179.366 1145.838 181.39578 1148.6528 183.99414 1151.4043 C 189.34975 1157.7743 194.56718 1164.2983 199.16016 1171.2383 C 203.79579 1178.2427 208.41568 1185.4362 211.60156 1193.1504 C 212.71685 1195.8509 213.21382 1198.7416 213.89062 1201.5664 C 215.03636 1206.3484 215.52975 1210.1314 216.88867 1215.998 C 218.24758 1221.8647 219.64839 1226.7 220.58008 1232.1289 C 221.267 1236.1315 221.6709 1240.1769 221.97461 1244.2207 C 222.16975 1246.8192 222.24375 1249.9635 222.24805 1252.0293 C 222.25205 1254.0951 222.35776 1256.1066 222.22656 1258.1387 C 221.55495 1268.5416 221.68726 1267.4308 218.3125 1289.168 C 217.17398 1296.5014 215.33643 1302.7756 214.74219 1309.6816 C 212.88902 1331.2181 212.09353 1353.042 214.79492 1374.5 C 215.23655 1378.0079 217.41797 1384.8086 217.41797 1384.8086 C 218.11061 1387.5308 219.15094 1389.2531 220.01172 1391.4766 C 220.83166 1393.5946 221.47816 1395.7866 222.46094 1397.834 C 231.05029 1415.7276 240.74149 1435.4707 252.42969 1449.2871 C 258.73116 1456.7359 266.45509 1465.9754 269.59375 1469.8184 C 275.49698 1477.0464 283.05643 1484.1906 291.71484 1490.7246 C 294.46603 1492.8008 298.4178 1496.0007 300.49609 1497.834 C 308.76114 1505.1248 314.24144 1508.9943 331.61328 1519.8086 C 342.26763 1526.4411 347.67885 1529.6251 351.21875 1531.5391 C 353.89462 1530.4822 358.04687 1528.3516 358.04688 1526.2637 C 358.04688 1525.1536 356.80574 1522.6176 355.28906 1520.627 C 353.77238 1518.6364 349.80752 1508.3432 346.47852 1497.7539 C 341.39544 1481.5853 339.10731 1476.5775 332.18945 1466.5 C 327.65882 1459.9 320.64161 1451.5007 316.59766 1447.834 C 299.47974 1432.3132 276.59396 1395.1744 270.41602 1372.8926 C 266.9599 1360.4275 267.30812 1323.3615 271.04102 1306.4062 C 279.90161 1266.1603 281.007 1257.711 281 1230.3008 C 280.994 1207.1089 280.54752 1201.8755 277.39844 1188.0098 C 273.12609 1169.1985 268.1604 1158.6601 252.3457 1134.832 C 240.83952 1117.4956 234.11608 1105.0851 224.71484 1083.834 C 215.02587 1061.9324 216.6214 1035.1395 229.51758 1003.168 C 238.51168 980.87012 242.01401 974.34916 262.3418 942.06641 C 277.2827 918.33859 278.78235 915.33083 281.28516 904.06641 C 283.87123 892.42706 283.89022 891.23835 281.66797 879.54102 C 278.84212 864.66641 276.8789 855.83444 259.48047 848.41211 L 244.17969 841.88672 z M 1380.2051 926.7207 L 1363.0098 929.18555 L 1345.8145 931.65039 L 1329.9434 942.76562 C 1315.246 953.058 1313.4174 954.85308 1305.2441 967.02539 C 1291.4911 987.50811 1290.8689 989.74919 1289.668 1023.168 C 1288.657 1051.2966 1288.7097 1052.1223 1292.4805 1067.168 C 1295.8834 1080.7464 1297.4687 1084.2947 1306.3379 1098.1699 C 1315.1857 1112.012 1317.898 1115.0724 1329.5938 1124.4219 C 1342.0609 1134.3883 1343.4453 1135.1222 1353.3398 1137.0215 C 1361.492 1138.5863 1370.0732 1138.8832 1391.623 1138.3457 L 1419.3984 1137.6523 L 1434.4219 1129.1504 C 1446.5157 1122.3065 1451.3948 1118.5497 1459.4336 1109.8887 C 1466.0277 1102.7843 1470.304 1096.7577 1472.0234 1092.1484 C 1476.1586 1081.0621 1478.636 1061.4743 1478.666 1039.6172 C 1478.704 1012.0118 1475.2373 997.92676 1464.4453 981.83398 C 1454.3775 966.82132 1443.8536 955.21097 1429.9434 943.76758 L 1418.5176 934.36719 L 1399.3613 930.54492 L 1380.2051 926.7207 z M 1404.4023 972.65039 C 1406.7425 972.61886 1408.7025 973.02794 1410.7441 973.3418 C 1411.2007 972.94366 1411.9438 972.8151 1413.4238 973.23828 C 1416.1931 974.03006 1418.6144 975.31907 1420.8828 976.8457 C 1421.5666 977.28602 1422.2034 977.8304 1422.8418 978.3457 C 1424.2 979.46633 1425.4616 980.76144 1426.6328 982.19922 C 1427.1998 982.90227 1427.8083 983.55013 1428.334 984.33789 C 1429.8849 986.62312 1431.3093 989.14575 1432.5117 992.11523 L 1436.1777 1001.168 L 1436.1367 1001.4023 L 1436.25 1001.6914 L 1433.9082 1014.6426 C 1433.2554 1018.2538 1432.3605 1021.7748 1431.2461 1025.1719 C 1430.687 1026.9435 1429.7876 1028.9295 1429.0469 1030.5684 C 1426.3624 1037.009 1422.8741 1042.8194 1418.6699 1047.8164 C 1418.4511 1048.0924 1417.8799 1049.0554 1417.7188 1049.2305 C 1417.4813 1049.4884 1417.3674 1049.4186 1417.166 1049.627 C 1416.6836 1050.1555 1416.2818 1050.7869 1415.7832 1051.293 C 1411.1335 1056.0125 1409.9962 1056.4953 1403.6562 1056.4453 C 1399.4343 1056.4123 1394.1149 1055.2227 1390.2402 1053.4453 C 1384.851 1050.9731 1383.0857 1049.1091 1379.2422 1041.834 C 1375.2621 1034.3005 1374.6359 1031.6855 1374.4609 1021.834 C 1374.1422 1003.9141 1375.7551 995.00357 1380.8789 986.35547 C 1386.9085 976.17864 1391.0008 973.4781 1401.4824 972.76953 C 1402.4813 972.70203 1403.4552 972.66315 1404.4023 972.65039 z M 976.07227 1115.0254 L 962.11523 1118.4668 C 954.43883 1120.3591 943.16344 1124.0335 937.06055 1126.6328 C 925.9865 1131.3492 925.90743 1131.361 897.37891 1132.543 C 857.64959 1134.1891 851.25359 1135.7906 834.25391 1148.3398 C 825.90802 1154.5008 817.46732 1162.3811 810.93555 1170.1094 C 802.19738 1180.4483 799.98332 1184.1958 795.8125 1195.6953 C 791.00458 1208.9513 790.94955 1209.3489 792.45898 1220.5 C 795.71466 1244.551 797.01239 1248.0963 808.44141 1264.1523 C 810.55805 1267.126 818.40167 1274.5321 825.87109 1280.6094 L 839.45117 1291.6582 L 857.68945 1296.7734 C 867.71998 1299.586 883.95146 1303.0214 893.75977 1304.4082 C 915.83743 1307.5296 933.70195 1307.2659 965.80664 1303.3477 L 990.06055 1300.3887 L 1014.3125 1287.1953 C 1034.5618 1276.1804 1039.4754 1272.8881 1044.0703 1267.252 C 1047.0972 1263.539 1050.3971 1260.5 1051.4023 1260.5 C 1052.4076 1260.5 1053.6385 1258.4607 1054.1387 1255.9688 C 1054.639 1253.4765 1056.3271 1249.9182 1057.8906 1248.0605 C 1059.5783 1246.0552 1061.3021 1240.9893 1062.1309 1235.5918 C 1062.8987 1230.5917 1064.1311 1223.5007 1064.8711 1219.834 C 1067.5602 1206.5092 1066.6541 1197.3021 1060.6445 1176.8848 C 1054.0411 1154.45 1047.253 1141.7127 1036.8633 1132.2637 C 1027.5982 1123.8375 1016.1173 1119.8083 993.76562 1117.1387 L 976.07227 1115.0254 z M 524.76953 1176.7637 C 521.05886 1176.8067 516.78199 1176.9461 511.41406 1177.1504 C 488.22192 1178.0329 487.55407 1178.1422 466.29102 1184.6289 C 454.42097 1188.2501 442.54466 1192.5746 439.89844 1194.2383 C 435.20083 1197.1917 435.07715 1197.5096 434.66797 1207.6738 C 433.95171 1225.4667 436.2293 1230.1278 452.77344 1244.7207 L 466.88477 1257.168 L 481.32812 1284.6602 C 490.01979 1301.2047 499.48669 1317.0077 505.10352 1324.3457 C 513.04462 1334.7203 516.33266 1337.7294 527.13477 1344.5176 C 534.11761 1348.9057 543.8684 1353.9548 548.80469 1355.7383 C 556.41336 1358.4874 560.34483 1358.9952 574.63086 1359.0742 C 596.6109 1359.1954 612.01764 1355.3223 630.5957 1345.0039 L 643.49023 1337.8418 L 650.1582 1324.8379 C 654.68794 1316.0049 657.8101 1307.4075 659.89062 1298.0332 C 664.82454 1275.8026 662.78781 1252.9368 655.36133 1247.168 C 654.8893 1246.8014 651.67979 1240.5734 648.22852 1233.3281 C 642.20038 1220.6734 641.38462 1219.6758 627.5 1207.9941 C 613.93959 1196.5855 612.00021 1195.4449 596.11328 1189.5449 C 582.87973 1184.6302 574.3483 1182.4923 557.06641 1179.7559 C 541.93863 1177.3604 535.90152 1176.6331 524.76953 1176.7637 z M 1276.8262 1312.1387 L 1260.0703 1312.8594 C 1243.4416 1313.5755 1243.2186 1313.6302 1230.8203 1319.832 C 1221.4054 1324.5414 1215.0866 1329.0708 1205.1797 1338.2168 C 1186.7206 1355.2585 1184.4484 1359.7371 1177.6406 1392.4609 C 1169.4948 1431.617 1164.5835 1441.5021 1134.1641 1479.9727 C 1124.3664 1492.3632 1115.4283 1504.3 1114.3008 1506.5 C 1111.9669 1511.054 1109.2603 1527.8068 1110.2734 1531.4277 C 1110.6067 1532.6185 1111.2196 1533.1769 1112.623 1533.3672 C 1113.4796 1533.3734 1114.6759 1533.329 1115.3965 1533.2812 C 1118.516 1532.9525 1123.3617 1531.9799 1133.6934 1529.7715 C 1152.96 1525.6532 1175.3069 1517.8464 1190.3184 1510.377 C 1190.3193 1510.3765 1190.3194 1510.3755 1190.3203 1510.375 C 1195.3241 1507.8851 1199.5119 1505.4337 1202.5 1503.168 C 1207.5408 1499.3457 1216.4024 1490.9368 1225.5625 1481.5488 C 1234.7223 1472.1613 1244.1813 1461.7942 1250.4199 1454.0566 C 1250.4202 1454.0563 1250.4197 1454.055 1250.4199 1454.0547 C 1250.6932 1453.7158 1251.1215 1453.0851 1251.4004 1452.7344 C 1254.855 1448.3868 1258.7447 1443.1947 1263.7148 1436.1074 C 1265.8183 1433.1049 1269.1672 1428.0357 1271.6855 1424.3359 C 1275.5223 1418.6995 1278.8879 1413.8535 1283.7539 1406.5 C 1283.7712 1406.4739 1283.83 1406.4286 1283.8477 1406.4023 C 1292.5695 1393.3424 1323.9357 1366.2975 1333.7852 1362.0996 C 1333.9024 1362.0496 1333.9236 1362.0525 1334.0312 1362.0078 L 1334.7617 1361.2949 L 1329.7832 1357.2305 C 1327.0447 1354.9956 1323.3983 1350.0167 1321.6797 1346.166 C 1317.3937 1336.5633 1303.6628 1324.7495 1288.5176 1317.6328 L 1276.8262 1312.1387 z M 765.75195 1486.0723 C 748.12664 1486.0323 726.99242 1486.387 712.57422 1487.0215 C 681.33642 1488.3962 674.5108 1489.1374 648.37305 1493.9922 C 621.89633 1498.9099 614.1271 1501.0685 566.33984 1516.7852 C 537.30726 1526.3333 510.34325 1535.0262 506.41992 1536.1035 C 497.93882 1538.4321 496.31999 1539.7688 495.03711 1545.5 C 494.32641 1548.675 494.57319 1549.8275 495.96289 1549.8105 C 500.57447 1549.7535 525.35546 1545.4769 545.6543 1541.2344 C 557.81661 1538.6924 574.18654 1535.428 582.0332 1533.9785 C 589.87987 1532.529 603.68338 1529.8477 612.70703 1528.0195 C 621.73066 1526.1913 644.201 1523.0016 662.64062 1520.9316 C 679.08551 1519.0856 687.82205 1518.1449 701.63281 1517.6719 C 715.44358 1517.1989 734.32782 1517.1922 771.06641 1517.2168 C 771.32007 1517.217 771.3319 1517.2205 771.58398 1517.2207 C 796.16359 1517.2381 812.96499 1517.3869 827.61914 1517.668 C 832.81664 1517.767 840.41891 1517.9523 844.71094 1518.1133 C 866.46956 1518.9453 884.65998 1520.5519 917.08594 1523.9453 C 927.95305 1525.0826 937.09891 1525.7753 937.41016 1525.4844 C 939.05813 1523.9442 929.65344 1518.7051 914.44727 1512.6914 C 901.73052 1507.6623 886.88478 1503.4896 856.72852 1496.4668 L 816.13086 1487.0117 L 781.82812 1486.248 C 777.11163 1486.143 771.62707 1486.0855 765.75195 1486.0723 z " />
    <path
       style="fill:#000000;stroke-width:1.03441"
       d="m 414.40014,1556.3391 c -29.33128,-3.1498 -58.71169,-11.3915 -77.04,-21.611 -6.66966,-3.7188 -23.04066,-13.4572 -36.38,-21.6409 -20.11269,-12.3391 -26.70511,-17.2445 -38.61436,-28.7329 -14.20144,-13.6996 -26.05628,-28.2667 -34.62407,-42.5457 -6.77015,-11.2831 -16.86383,-34.6522 -20.87653,-48.3338 -3.49492,-11.9161 -6.48227,-13.6002 -6.48326,-52.9767 -8.8e-4,-35.3792 3.24812,-42.49 5.76652,-54.6666 4.99671,-24.1596 5.12143,-36.2664 0.63074,-61.2294 -5.1011,-28.3562 -9.80384,-38.2911 -28.61527,-60.4516 -26.06808,-30.7092 -32.7631,-40.4972 -41.8637,-61.204 -8.23695,-18.7417 -8.19323,-24.6718 -10.00917,-37.4723 -1.5583,-10.9844 -2.21405,-22.2863 -0.69338,-33.276 3.04243,-21.9872 2.8719,-23.6173 19.41348,-63.69745 10.05088,-24.3532 21.10965,-42.95466 33.58972,-63.33333 7.43441,-12.13963 15.642,-23.8365 24.5117,-34.97066 6.20503,-7.78919 20.01239,-22.18264 20.01239,-22.18264 25.47669,-28.23951 44.67618,-37.03988 65.01519,-40.85939 20.48655,-3.84721 25.74303,-5.14638 47.86841,-4.45678 20.06232,0.6253 24.6138,2.15355 34.64243,5.21392 6.40704,1.95518 12.28221,4.51635 18.21493,7.2591 4.07482,1.88383 8.45858,3.4215 11.90281,6.30079 7.54621,6.30846 12.28285,10.52843 18.20904,23.21872 4.53604,9.71343 5.44157,10.02086 5.40652,31.1436 -0.0514,30.98242 -5.05066,47.52344 -18.54165,70.66667 -3.84738,6.6 -9.3141,16.2 -12.14829,21.33333 -2.83418,5.13334 -6.68376,10.83334 -8.55461,12.66667 -1.87087,1.83333 -3.87774,5.59173 -5.69587,8.46637 -3.45342,5.46017 -5.71386,10.32317 -9.89334,16.66668 -12.98635,19.7104 -15.99482,26.3868 -17.95606,39.8486 -2.60912,17.9087 -1.40868,26.3386 5.41306,38.0122 5.32288,9.1088 6.47083,10.1604 19.68636,18.0351 19.01969,11.3332 28.71523,13.8367 79.79292,20.6034 13.30341,1.7624 101.07422,2.1745 154.79333,0.7268 14.51632,-0.3912 39.48726,-0.5127 59.20666,-1.4451 21.19064,-1.002 42.31579,-3.1003 63.48666,-4.4573 10.45834,-0.6704 16.08567,-1.2315 31.38667,-1.8202 15.301,-0.5888 32.635,-1.6947 38.52,-2.4577 28.1423,-3.6487 29.74372,-5.2418 44.52502,-8.3211 5.14086,-1.071 10.2362,-2.3498 15.35301,-3.5303 4.61731,-1.0652 9.27857,-1.9568 13.8496,-3.2058 4.6715,-1.2764 9.32962,-2.648 13.85338,-4.3765 11.37726,-4.3472 23.54572,-7.7424 33.30361,-15.031 9.31839,-6.9603 18.07973,-15.7882 22.7885,-26.4233 4.52621,-10.2228 3.98861,-8.4303 4.08028,-33.2908 0.10722,-29.07944 2.46241,-50.75771 6.42834,-59.16954 3.6042,-7.64458 3.60489,-18.70689 10e-4,-25.30791 -3.35512,-6.14633 -11.16913,-12.90321 -21.55515,-18.63902 -4.28715,-2.36764 -9.01929,-5.03503 -10.51586,-5.92752 -4.90399,-2.92456 -11.41361,-11.30456 -16.69436,-17.34759 -2.17528,-2.48929 -4.18282,-5.12303 -6.15979,-7.77256 -2.01527,-2.70086 -4.13024,-5.35227 -5.80737,-8.27514 -2.83992,-4.94934 -4.56776,-10.06077 -7.13529,-15.56077 -6.27946,-13.45144 -6.25248,-13.36606 -9.27033,-29.33333 -2.95488,-15.63409 -4.29221,-49.09353 -1.01537,-64.96198 1.11993,-5.4234 3.24179,-12.77136 4.79685,-15.70469 4.56155,-8.6045 9.58483,-17.41991 15.06135,-25.70374 2.217,-3.35345 4.53997,-6.65894 7.1854,-9.68589 7.84214,-8.97313 12.5587,-15.17448 25.60193,-24.9537 4.16423,-3.12216 11.48413,-8.61648 16.26643,-12.2096 4.7823,-3.59312 10.82657,-7.75478 16.48202,-11.2602 4.12537,-2.55703 8.35975,-4.95073 12.70492,-7.11326 15.01919,-7.47482 30.49636,-14.03081 46.09386,-20.20882 4.3957,-1.74109 8.8519,-3.34114 13.3668,-4.74449 5.4128,-1.68245 13.8558,-3.8154 20.8505,-5.45363 6.4999,-1.52234 12.992,-3.19306 19.6108,-4.06315 12.6932,-1.66861 10.3202,-2.35159 38.3444,-2.19251 18.603,0.10559 22.4552,0.45848 33.5706,1.89607 5.3082,0.68652 10.5712,1.79274 15.7345,3.20292 5.9186,1.61649 11.6448,3.87644 17.3986,6.00645 3.4084,1.26175 6.8555,2.45229 10.1389,4.01062 13.0968,6.21576 26.0899,12.90016 37.9653,21.21492 5.1745,3.623 9.7688,8.02843 14.3451,12.38261 4.6482,4.42266 9.0058,9.14778 13.286,13.92751 1.8292,2.04273 3.6674,4.08902 5.2919,6.29804 8.9613,12.18566 19.9511,29.52381 24.4637,38.21897 1.78,3.42968 4.189,10.62219 6.1025,16 2.0219,5.6826 4.1696,11.34075 5.6802,17.18014 2.8827,11.14377 3.6327,12.89406 6.4184,33.93002 0.5333,4.02676 3.5935,8.96249 7.639,12.32072 3.1793,2.63923 5.1743,3.00264 16.5888,3.02194 23.2167,0.0393 48.9986,5.93044 72.0223,16.45721 11.8601,5.42255 18.0871,11.10221 26.5594,17.46552 4.9266,3.70023 9.5471,7.80478 14.0578,12.00196 4.5708,4.25306 9.111,8.57644 13.1548,13.33333 3.9343,4.62809 7.3868,9.6568 10.7427,14.72004 4.4377,6.69549 8.3557,13.72258 12.3934,20.66667 3.3573,5.77403 6.8663,11.47449 9.837,17.45663 3.5456,7.13977 5.9103,14.82976 9.504,21.94544 4.7088,9.32351 10.4418,21.71033 15.7506,27.08915 10.2468,11.33536 22.472,14.48099 35.1009,19.50631 3.5364,1.40722 7.1804,2.53432 10.8203,3.64694 10.1023,3.08802 13.7985,4.64311 30.5581,8.39871 9.0237,2.022 14.8584,4.7584 22.5485,5.8105 6.4539,0.8829 14.0373,3.4926 19.5382,0.3854 5.405,-3.0525 17.2783,-5.9633 22.5639,-6.9062 5.2856,-0.9429 5.6938,-1.1517 8.5338,-0.831 4.0078,0.4526 5.4387,0.2493 11.4781,3.8287 6.0394,3.5795 13.2232,10.8187 21.5944,21.1059 10.3225,12.6852 13.4188,24.1499 10.8992,34.0307 -4.3931,17.228 -6.7254,17.8311 -10.4022,21.1228 -6.1766,5.5296 -8.8095,8.8671 -7.8859,24.6972 0.8424,14.4382 1.405,39.6452 -3.1278,58.7123 -5.8935,24.7908 -18.9106,47.4211 -30.7219,70 -2.5614,4.8964 -5.9015,10.1932 -8.6701,14.1298 -2.8804,4.0959 -4.4436,5.7634 -6.7715,8.559 -2.5713,3.088 -5.1666,6.1635 -7.9435,9.068 -6.7205,7.0294 -13.5172,14.0523 -21.0605,20.1904 -4.4764,3.6425 -0.4114,0.846 -14.272,9.8013 -7.4157,4.7913 -9.6113,5.3178 -13.6964,8.924 -1.0889,0.9612 -2.2218,2.0009 -2.8132,3.3275 -1.005,2.2545 -1.1094,3.3012 -1.0099,7.336 0.1466,5.9396 -0.5633,8.387 -3.7289,12.8576 -11.2477,15.8846 -35.646,31.071 -59.5364,37.0577 -29.7775,7.462 -80.5178,9.6526 -121.5809,5.2491 -12.6106,-1.3524 -29.3629,-2.4682 -37.2274,-2.4796 -13.9479,-0.02 -14.5183,0.1004 -23.2229,4.913 -9.5476,5.2786 -26.2047,19.562 -35.3487,30.3114 -3.0777,3.6181 -6.8799,7.8918 -8.4493,9.4969 -4.3727,4.4727 -19.6943,26.2237 -32.9487,46.7752 -13.6948,21.2342 -46.4552,49.7504 -69.9538,60.891 -18.5754,8.8066 -43.8371,14.7278 -81.1375,19.0183 -24.6722,2.838 -72.7008,2.8513 -95.5866,0.027 -9.416,-1.1621 -36.05896,-3.9223 -59.20662,-6.1337 -23.14766,-2.2114 -55.24766,-5.363 -71.33332,-7.0034 -26.89462,-2.7429 -35.55708,-2.972 -107.71334,-2.849 -71.23791,0.1215 -80.83243,0.4013 -104.14665,3.0371 -48.44686,5.4773 -77.05936,9.4042 -93.44667,12.8251 -9.02367,1.8837 -35.10225,6.1052 -57.95238,9.3811 -38.39561,5.5047 -43.47979,5.9432 -67.05334,5.7833 -14.02918,-0.095 -30.3226,-0.69 -36.2076,-1.322 z m 57.77999,-5.3158 c 1.01715,-0.07 6.63481,-0.5762 12.53843,-0.6174 3.23579,-0.023 4.56775,-0.347 7.6523,-0.3217 3.1993,0.026 2.21933,-0.2565 3.59259,-0.2734 4.61158,-0.057 29.39115,-4.3331 49.69001,-8.5756 12.16233,-2.542 28.53333,-5.8077 36.38,-7.2572 7.84667,-1.4495 21.64967,-4.1312 30.67333,-5.9594 9.02366,-1.8282 31.49366,-5.0176 49.93334,-7.0876 32.88981,-3.6921 34.9494,-3.7626 108.42665,-3.7135 66.63793,0.045 78.57626,0.3816 108.22724,3.0551 18.32997,1.6526 37.88625,3.7725 43.51332,4.242 15.29927,1.2766 11.62707,0.6735 17.41463,1.2686 2.08506,0.2144 4.15228,0.5602 6.23016,0.8288 17.37993,2.2463 19.90693,2.3481 52.16801,6.5454 26.86366,3.4951 41.95206,3.9649 79.09106,2.4625 19.4065,-0.785 17.7175,-0.8347 26.5523,-1.5517 2.0181,-0.1638 3.8737,-0.512 6.0398,-0.6281 7.7027,-0.414 0.9559,1.1265 23.3908,-3.669 25.69,-5.4913 56.8541,-17.5409 68.8064,-26.6039 10.0816,-7.6445 35.4427,-33.6363 47.92,-49.1117 7.3097,-9.066 16.5146,-22.1943 33.3432,-47.5551 8.6455,-13.0287 40.1509,-40.195 50.0208,-44.4016 1.6339,-0.6965 2.2865,-0.8512 3.4314,-1.273 0.8645,-0.3184 1.6815,-0.7965 2.5962,-0.9494 6.9899,-1.1684 8.6794,0.2814 21.2986,0.3787 16.9285,0.1305 26.8406,0.9057 37.8066,2.9568 8.5378,1.5969 23.6663,3.1069 35.5495,3.5484 17.947,0.6667 24.1821,0.2855 47.08,-2.8785 32.0753,-4.4321 41.3696,-6.9933 57.0666,-15.7257 13.7903,-7.6716 18.0524,-10.9075 20.6209,-15.6557 2.0582,-3.8046 3.9664,-13.6823 2.478,-12.8265 -1.9557,1.1245 -5.8831,-6.4764 -3.8076,-10.2273 1.1683,-2.1116 8.8418,-6.1219 11.7681,-7.5907 2.9264,-1.4689 9.8146,-5.6773 15.3072,-9.352 5.4928,-3.6747 12.8758,-8.4921 16.4068,-10.7053 15.9393,-9.9907 39.0639,-38.7764 52.6303,-65.5148 16.7057,-32.9257 18.5031,-37.3743 20.1132,-49.7834 0.8564,-6.6 2.5826,-16.7883 3.836,-22.6406 1.6561,-7.7333 2.0649,-14.697 1.4963,-25.4876 -1.029,-19.528 -3.2581,-23.8212 -15.7607,-30.3557 -16.7934,-8.7769 -30.6404,-27.3269 -35.2428,-47.2121 -3.5912,-15.5161 -4.0347,-15.7901 -41.3391,-25.5363 -50.7985,-13.2718 -85.5636,-31.72739 -91.2558,-48.44473 -3.4616,-10.16619 -33.0277,-69.53886 -39.3479,-79.01589 -8.728,-13.08743 -32.0915,-34.07228 -47.0736,-42.28106 -32.3096,-17.70264 -54.1334,-23.69274 -86.3202,-23.69274 h -19.8511 l -2.8217,-5.16917 c -1.5519,-2.84305 -3.821,-11.09305 -5.0423,-18.33333 -1.2214,-7.24029 -2.9239,-17.36416 -3.7837,-22.4975 -4.1284,-24.65112 -8.8144,-36.22597 -24.4301,-60.34367 -13.9927,-21.61123 -32.3109,-41.36307 -48.8349,-52.65697 -13.3347,-9.11403 -38.0387,-21.76582 -56.3853,-26.3119 -13.8276,-3.42637 -15.5701,-4.78517 -46.695,-5.37437 -30.9456,-0.5858 -36.9385,2.62883 -50.5103,5.34015 -30.8065,6.1544 -75.14195,23.85781 -99.67466,39.8007 -12.61488,8.19796 -36.1513,27.19738 -43.31532,34.28171 -5.11877,5.06185 -10.93711,13.26538 -26.43173,41.20136 -3.65999,6.59875 -11.5606,25.69647 -6.20673,64.70426 0,0 1.00328,11.73731 2.39327,17.43714 1.16356,4.77135 4.94112,13.88029 4.94112,13.88029 2.21104,6.2111 4.06473,9.62285 6.41765,14.2814 1.97197,3.9043 4.05415,7.76716 6.44105,11.43253 3.63826,5.58698 7.53596,11.04489 11.96679,16.02676 3.74821,4.21435 7.80575,8.20718 12.28382,11.63599 3.44542,2.63812 6.55625,3.92419 11.10783,6.78908 4.55157,2.86488 6.40324,4.42092 9.41648,6.87554 1.84161,1.50019 3.48578,3.22884 5.27911,4.78642 2.25707,1.96037 3.1028,2.17234 6.8951,5.73536 6.18307,5.80922 6.99537,7.27553 7.86592,14.19892 0.59962,4.76857 -0.10041,6.97537 -0.57607,10.422 -1.20531,8.73362 -2.96494,9.01279 -5.74789,25.81707 -0.84646,5.1112 -1.65565,8.10099 -2.2633,12.18828 -1.53817,10.34641 -2.56534,20.76647 -3.49385,31.18527 -1.01147,11.3497 -1.50527,31.1159 -2.26125,34.1093 -1.75635,6.9545 -9.24734,17.4729 -22.63947,31.7891 -8.89391,9.5075 -10.50526,9.395 -16.66128,12.6857 -4.46996,2.3894 -9.67192,3.3596 -14.3799,4.9423 -18.70972,6.2895 -47.5683,13.859 -50.47917,13.8263 -0.95398,-0.011 -12.78986,2.8776 -19.26,3.8987 -14.08122,2.2222 -28.30559,3.436 -42.49217,4.8361 -9.2607,0.9139 -19.25954,1.659 -27.82,2.3261 -8.56046,0.6671 -15.68698,1.2298 -23.54,1.7004 -12.83154,0.7689 -25.67123,1.4492 -38.52,1.8348 -45.39861,1.3625 -59.08598,1.5942 -136.24666,1.6908 -140.57456,0.176 -140.30679,0.1951 -177.61999,-12.6694 -11.81167,-4.0723 -22.46696,-10.372 -25.58764,-12.1995 l -3.59293,-2.104 c -7.48199,-4.3814 -10.36271,-10.2782 -14.33789,-16.3353 -2.29714,-3.5002 -4.42694,-7.2768 -5.36332,-11.3574 -2.74488,-11.9619 -2.0429,-24.6589 -0.36597,-36.8166 0.84506,-6.1266 2.76497,-12.1252 5.20007,-17.8103 3.49114,-8.1505 11.58855,-21.1131 13.33945,-23.0137 1.01335,-1.10001 3.23346,-4.40001 4.93358,-7.33338 1.70011,-2.93334 5.29672,-8.63334 7.99246,-12.66667 2.69573,-4.03333 6.55697,-10.47186 8.58052,-14.30784 2.02357,-3.83598 3.42035,-5.12095 5.02159,-7.74987 3.26713,-5.364 4.94547,-7.78793 9.34924,-16.35883 4.40376,-8.5709 7.10646,-11.60424 9.32124,-17.9821 4.03869,-11.63016 6.26287,-23.97772 6.98388,-36.26803 0.75656,-12.89637 1.71221,-26.55792 -2.82815,-38.65229 -1.40902,-3.75325 -4.54855,-6.63144 -7.23279,-9.6092 -3.72276,-4.12983 -7.57556,-8.82416 -12.21827,-11.35533 -2.30362,-1.25592 -5.50202,-3.79037 -7.69425,-4.66667 -3.88212,-1.55181 -8.01085,-3.01809 -14.0445,-5.68125 -8.47479,-2.75704 -11.34661,-3.55711 -37.28334,-4.09246 0,0 -14.90503,-0.53945 -22.30532,0.18175 -7.77031,0.75726 -23.01674,4.33474 -23.01674,4.33474 -8.31073,1.56516 -16.66358,5.4998 -18.96642,6.87188 -7.51689,4.47872 1.74113,-1.39378 -5.68585,3.56394 -3.5496,2.36947 -7.16142,5.78823 -10.72932,8.69811 -2.18637,1.78314 -4.49442,3.42918 -6.54334,5.3687 -11.94421,11.30643 -23.01064,23.57356 -33.34091,36.37142 -2.90771,3.60227 -6.34576,8.4 -8.02719,11.33333 -1.68142,2.93333 -4.47555,7.13333 -6.2092,9.33333 -1.73363,2.2 -3.59337,4.9 -4.13275,6 -0.53938,1.1 -2.25054,3.8 -3.80259,6 -1.55206,2.2 -2.56065,3.96255 -3.74789,6 -4.93568,8.47028 -9.41181,17.20061 -14.01904,25.85394 -5.1052,9.58862 -10.61898,18.98418 -15.09603,28.8817 -3.01359,6.66222 -5.51829,13.55145 -7.89091,20.46793 -1.58162,4.61062 -3.11318,9.25365 -4.22285,14.00005 -1.60023,6.8446 -2.52902,11.2631 -3.4925,20.7964 -2.70245,26.7398 -0.15076,40.6763 4.108,60.4025 0.27984,1.2962 0.90078,2.4949 1.39153,3.7268 1.45382,3.6494 2.89368,7.3116 4.59855,10.8507 1.81361,3.7648 4.37041,8.4533 5.97724,11.02 6.67709,10.6656 18.19271,26.2593 21.60342,29.2539 2.59647,2.7501 4.62545,5.5661 7.22381,8.3176 5.35561,6.37 10.57296,12.8924 15.16594,19.8324 4.63564,7.0044 9.25648,14.1981 12.44237,21.9123 1.11529,2.7005 1.61146,5.5919 2.28827,8.4167 1.14574,4.782 1.63901,8.565 2.99793,14.4317 1.35891,5.8667 2.76005,10.7012 3.69174,16.1301 0.68692,4.0026 1.09047,8.0476 1.39418,12.0914 0.19514,2.5985 0.26995,5.7446 0.27425,7.8104 0.004,2.0658 0.1102,4.077 -0.021,6.1091 -0.67161,10.4029 -0.53989,9.2905 -3.91465,31.0277 -1.13852,7.3334 -2.97699,13.6093 -3.57123,20.5153 -1.85317,21.5365 -2.64709,43.3601 0.0543,64.8181 0.44163,3.5079 2.62297,10.3089 2.62297,10.3089 0.69264,2.7222 1.73295,4.4432 2.59373,6.6667 0.81994,2.118 1.46621,4.3103 2.44899,6.3577 8.58936,17.8936 18.27997,37.6376 29.96818,51.454 6.30148,7.4488 14.02524,16.6875 17.1639,20.5305 5.90324,7.228 13.46376,14.3733 22.12218,20.9073 2.75119,2.0762 6.70261,5.2749 8.78091,7.1082 8.26505,7.2908 13.74423,11.1603 31.11609,21.9746 22.0007,13.6958 22.92303,13.5355 27.17596,15.1964 l 7.04484,2.7514 10.89045,2.6521 c 8.63009,2.1017 24.4545,8.2472 59.78956,10.7046 21.45219,1.4918 20.0045,0.9935 33.87729,0.034 z M 1410.1844,1049.6 c -2.7623,-1.2978 -7.4457,-4.679 -10.4076,-7.5138 l -5.3852,-5.1542 1.5709,-9.2156 c 0.8639,-5.0686 2.1768,-9.7856 2.9176,-10.4823 2.0546,-1.9326 1.6048,-9.2381 -0.748,-12.1452 -4.4984,-5.55841 -1.7469,-14.90087 6.9906,-23.73537 2.7999,-2.83098 5.0907,-6.02141 5.0907,-7.08985 0,-1.39763 0.9006,-1.68514 3.21,-1.02483 8.7652,2.50615 14.9264,8.59897 19.0878,18.87617 l 3.6657,9.05238 -2.3401,13.268 c -1.849,10.4838 -3.5218,15.24 -7.9724,22.6666 -3.0979,5.1693 -6.7631,10.627 -8.145,12.1282 -2.4482,2.6594 -2.6416,2.6688 -7.535,0.3698 z"
       id="path9"
       sodipodi:nodetypes="cssssssssssaasaassssaasssssassssssaassaaaaaasscssaaassssaassaaaaaasaaaaaaaasaassssaaaaaaassasaczazssssaasaaasaasssssssssssssssssssccccsssssscssssssscssssssssssssssssssssssssssssscssssssssssssasaaaasaassasaassassaazaassssaaaassssasaaaassccasssaaassssaaaaasaaassaaaasaazasaasaasssssscssscsscssssssscssss"
       inkscape:label="BodyBorder" />
    <path
       style="fill:#1f1dc7;stroke-width:1.03441"
       d="m 1096.3468,1449.8341 c 0,-1.7778 0.9511,-2.6667 2.8533,-2.6667 1.9022,0 2.8533,0.8889 2.8533,2.6667 0,1.7778 -0.9511,2.6667 -2.8533,2.6667 -1.9022,0 -2.8533,-0.8889 -2.8533,-2.6667 z"
       id="path1"
       inkscape:label="BodyShaft2" />
    <path
       style="fill:#1f1dc7;stroke-width:1.03441"
       d="m 461.48013,1459.8341 c 0,-2.4445 0.7609,-3.3333 2.85333,-3.3333 2.09245,0 2.85334,0.8888 2.85334,3.3333 0,2.4444 -0.76089,3.3333 -2.85334,3.3333 -2.09243,0 -2.85333,-0.8889 -2.85333,-3.3333 z"
       id="path11"
       inkscape:label="BodyShaft1" />
  </g>
  <g
     inkscape:groupmode="layer"
     id="layer2"
     inkscape:label="Wheel2">
    <path
       id="path209"
       style="fill:#a94f36"
       inkscape:label="Wheel2Infill"
       d="M 1311.9121 243.16992 C 1306.2275 242.98985 1300.5297 243.23738 1294.916 243.91992 C 1292.2865 244.23963 1289.785 245.25212 1287.2637 246.06445 C 1284.9675 246.80426 1282.6973 247.62784 1280.4668 248.54688 C 1280.3367 248.60067 1280.1758 248.7056 1280.043 248.75586 C 1279.0838 249.11869 1278.31 249.54257 1277.4141 249.95312 C 1276.3576 250.44154 1275.2877 250.90133 1274.2695 251.46289 C 1273.169 252.0987 1272.3809 252.64909 1272.3809 252.88672 C 1272.3809 253.4419 1280.5469 258.81634 1288.7969 263.67578 C 1330.5555 288.27265 1330.1006 287.79817 1349.3105 326.55664 C 1361.9237 352.00538 1365.7652 358.55783 1371.6348 364.62891 C 1379.8309 373.10632 1384.4648 379.51754 1384.4648 382.38281 C 1384.4648 386.08964 1370.314 381.42285 1347.293 370.12305 C 1323.54 358.46395 1312.9031 355.29492 1297.5137 355.29492 C 1285.5106 355.29492 1280.5204 357.66844 1273.1309 366.89062 C 1270.1976 370.55147 1265.2206 375.21384 1262.0703 377.25 C 1258.92 379.28615 1249.3948 390.63502 1249.8203 391.06055 C 1250.0361 391.27632 1250.9311 391.78153 1252.1035 392.36133 C 1256.5177 393.80703 1262.8655 394.02469 1285.4238 394.57227 C 1303.1511 395.00257 1319.2501 396.02621 1322.5 396.92969 C 1340.8962 402.04384 1357.3375 414.60065 1364.8828 429.30078 C 1368.2249 435.8119 1368.5592 437.7534 1368.4922 450.22852 C 1368.4172 464.28933 1367.9439 466.22865 1360.7793 481.8125 C 1356.5531 491.00479 1339.0409 512.98948 1325.7305 525.8125 C 1283.7169 566.28769 1260.1454 590.41097 1257.4863 595.6543 C 1255.8567 598.86738 1253.6842 604.26739 1252.6582 607.6543 C 1251.6169 611.0918 1251.1849 616.05058 1251.0605 621.25977 C 1251.1074 623.1139 1251.1277 624.88307 1251.2344 626.94727 C 1251.3454 629.09566 1251.3552 630.23769 1251.4043 631.83594 C 1251.8277 636.57984 1252.4721 641.14298 1253.5781 644.59375 C 1255.9791 652.08462 1259.6724 659.97566 1263.9922 667.44336 C 1271.2953 667.9145 1268.6874 664.32388 1278.4395 647.82422 C 1302.8896 606.45646 1302.3615 606.96272 1341.0586 587.7832 C 1366.5074 575.17001 1373.0599 571.32856 1379.1309 565.45898 C 1387.6084 557.26293 1394.0195 552.62891 1396.8848 552.62891 C 1400.5916 552.62891 1395.9248 566.77782 1384.625 589.79883 C 1372.9659 613.55184 1369.7969 624.1907 1369.7969 639.58008 C 1369.7969 651.58315 1372.1705 656.57342 1381.3926 663.96289 C 1385.0535 666.89622 1389.7277 671.89355 1391.7793 675.06836 C 1394.1385 678.71896 1396.8883 681.02721 1398.127 680.75781 C 1398.4796 676.39978 1398.2437 665.22935 1397.4609 653.79102 C 1396.3023 636.86053 1396.3038 629.03791 1397.4629 621.91602 C 1400.416 603.77196 1406.9839 587.86625 1414.8125 579.9043 C 1418.568 576.08479 1436.6069 567.83211 1447.1953 565.08984 C 1459.1133 562.00326 1474.5 562.57419 1482.7559 566.4082 C 1484.2244 567.0902 1485.5548 567.83007 1486.9492 568.54492 C 1487.4925 568.82373 1488.0995 569.05337 1488.6133 569.35352 C 1488.704 569.40653 1488.7978 569.47707 1488.8887 569.53125 C 1497.1255 573.95013 1503.9308 578.85409 1508.2891 583.70508 C 1514.1038 590.1771 1527.7564 608.45126 1532.7559 616.45312 C 1538.6443 625.87782 1554.7183 645.12439 1565.875 656.10938 C 1573.7946 663.90726 1582.093 670.20011 1590.7949 675.00977 C 1590.8712 675.05209 1590.9376 675.0849 1591.0137 675.12695 C 1605.535 683.10546 1621.1817 686.95507 1638.0898 686.71484 C 1640.5959 686.67924 1642.7071 686.47971 1644.7676 686.17773 C 1646.8237 685.79438 1648.8562 685.32855 1650.7812 684.7832 C 1651.2215 684.64633 1651.6291 684.54897 1652.0898 684.39258 C 1652.5228 684.26086 1652.8702 684.11629 1653.2891 683.98047 C 1654.9122 683.39537 1656.6283 682.73118 1658.6523 681.88477 C 1660.3541 681.17313 1661.4792 680.53947 1662.9551 679.875 C 1663.5446 679.47391 1663.9609 679.12058 1663.9609 678.90039 C 1663.9609 678.38283 1655.0469 670.44344 1646.7969 665.58398 C 1605.0382 640.98712 1605.4951 641.4616 1586.2852 602.70312 C 1573.672 577.25439 1569.8286 570.69997 1563.959 564.62891 C 1555.7629 556.15149 1551.1309 549.74028 1551.1309 546.875 C 1551.1309 543.16818 1565.2798 547.83498 1588.3008 559.13477 C 1612.0539 570.79386 1622.6926 573.96289 1638.082 573.96289 C 1650.0851 573.96289 1655.0754 571.58937 1662.4648 562.36719 C 1665.3981 558.70635 1671.602 555.09374 1673.7969 551.83594 L 1678.9727 544.1543 C 1674.0004 543.11846 1668.1718 542.7056 1659.0547 541.67578 L 1642.8105 539.83984 C 1640.7729 539.60969 1639.9067 539.38493 1636.8105 538.47852 C 1633.7143 537.5721 1628.8061 535.64226 1624.3906 533.99609 C 1619.9751 532.34993 1614.2268 530.06841 1610.3262 528.58398 C 1606.4255 527.09957 1603.8824 526.7143 1600.9922 525.07227 C 1597.5071 523.09221 1594.3948 520.43949 1591.5938 517.57227 C 1588.65 514.55893 1586.1304 510.95529 1583.9434 507.51172 C 1579.4977 500.51155 1576.1165 495.41846 1575.9551 484.47852 C 1575.7044 467.48067 1580.2792 451.09506 1588.5996 439.18555 C 1595.0226 429.99186 1612.079 412.15183 1621.4238 404.85352 C 1644.5773 386.77052 1667.4601 366.43559 1677.0762 355.39648 C 1689.493 341.14219 1693.0545 325.37634 1688.7305 303.8125 C 1687.4805 297.57918 1686.029 290.07787 1685.5059 287.14453 C 1684.2268 279.97186 1680.0385 275.31659 1676.3477 269.99609 L 1676.0352 269.625 L 1673.4629 276.88867 C 1648.8125 318.73511 1649.3059 318.25956 1610.5371 337.47461 C 1585.0883 350.08782 1578.5358 353.93121 1572.4648 359.80078 C 1563.9874 367.99684 1557.5762 372.62891 1554.7109 372.62891 C 1551.0041 372.62891 1555.6709 358.48 1566.9707 335.45898 C 1578.6298 311.70597 1581.7969 301.06712 1581.7969 285.67773 C 1581.7969 273.67467 1579.4253 268.68439 1570.2031 261.29492 C 1566.5423 258.36159 1561.8977 253.41159 1559.8828 250.29492 C 1557.8679 247.17826 1554.5106 243.48242 1554.1738 243.48242 C 1554.1088 243.48242 1553.5538 243.90504 1553.2793 244.06641 C 1551.2159 246.57233 1549.1155 249.58565 1547.6934 252.30664 C 1545.7561 256.01323 1544.7551 258.21821 1544.0957 261.71875 C 1543.7892 263.55139 1543.5816 265.74588 1543.3848 268.05273 C 1543.097 272.02125 1542.8664 276.96708 1542.5898 285.14453 C 1542.2677 294.66688 1541.6933 303.28753 1541.1191 309.78516 C 1541.0539 310.53662 1540.9683 311.40847 1540.8965 312.09961 C 1540.7303 313.71436 1540.5568 316.39055 1540.4043 317.22852 C 1538.4129 328.16804 1539.2025 333.44612 1531.8418 343.69727 C 1526.5378 351.08406 1521.1341 356.3641 1517.4238 358.20312 C 1515.5093 359.1521 1505.6314 362.92219 1499.4844 364.43359 C 1496.0136 365.28699 1492.7552 366.46347 1488.8789 366.01367 C 1485.0025 365.56387 1480.9114 363.13086 1477.0879 361.32031 C 1471.5172 358.68246 1464.9499 354.99282 1460.9102 352.36523 C 1456.8705 349.73765 1454.2732 347.83501 1452.5977 346.07422 C 1452.5977 346.07422 1439.218 333.12889 1433.0918 326.13477 C 1431.3278 324.12086 1428.1406 319.8125 1428.1406 319.8125 C 1428.1406 319.8125 1423.1014 312.96323 1419.5469 308.29102 C 1415.9924 303.6188 1410.2419 295.55203 1406.7656 291.81641 C 1403.2893 288.08078 1403.0137 288.39755 1399.498 285.29102 C 1395.9824 282.18449 1390.4748 276.97763 1385.627 273.23047 C 1382.8717 271.10081 1379.9558 269.17877 1377.0059 267.32812 C 1371.682 263.98815 1366.246 260.80912 1360.6465 257.95508 C 1354.4717 254.80775 1345.7233 250.90747 1341.6836 249.42969 C 1341.6836 249.42969 1333.2887 245.80392 1328.8301 244.98242 C 1323.2687 243.95774 1317.5967 243.35 1311.9121 243.16992 z " />
    <path
       style="fill:#000000"
       d="m 1321.7037,724.9172 c -2.5297,-0.4642 -5.0229,-1.1541 -7.4538,-1.9944 -3.8512,-1.3311 -7.6172,-2.9406 -11.2394,-4.8069 -3.8705,-1.9942 -7.7224,-4.1178 -11.1538,-6.7979 -11.9207,-9.3111 -22.8564,-20.0581 -32.2972,-31.8764 -2.6251,-3.2862 -4.6527,-7.0211 -6.6608,-10.7168 -1.4472,-2.6636 -2.7538,-5.4113 -3.868,-8.2305 -0.8408,-2.1275 -1.6003,-4.2998 -2.1159,-6.5286 -1.4672,-6.3418 -2.7258,-12.824 -2.7499,-19.3333 -0.043,-11.5932 0.3537,-23.69782 4.6426,-34.46857 3.9312,-9.87236 5.3904,-11.60221 18.627,-25.87076 8.2773,-8.92256 11.5731,-11.82211 17.5192,-17.57115 8.4327,-8.15331 12.9423,-11.53805 25.7422,-23.99218 22.3035,-21.70085 31.9868,-31.68437 43.351,-50.83693 2.6937,-4.53967 5.1242,-12.59305 5.6519,-14.79305 2.3999,-10.0045 6.0658,-17.39209 0.5099,-29.66947 -4.3326,-9.57445 -15.5766,-20.48385 -26.4925,-26.60578 -8.059,-4.51969 -17.8012,-5.22246 -26.9596,-6.44626 -13.0019,-1.73737 -29.0667,-0.67171 -39.3334,-1.21873 0,0 -11.0356,-0.61893 -16.2123,-2.35811 -3.772,-1.26726 -7.3002,-3.33691 -10.4543,-5.76292 -7.4008,-5.69236 -14.7173,-12.14053 -19.3636,-20.23906 -2.219,-3.86786 -3.4672,-5.78944 -4.4217,-8.98949 -2.4284,-8.14102 -3.8502,-9.67827 -3.1176,-25.29501 0.4482,-9.55341 1.0174,-14.30367 2.1727,-21.36985 0.7686,-4.70089 1.6693,-9.41188 3.1576,-13.93671 2.515,-7.64624 5.1425,-15.4757 9.6862,-22.11988 7.9627,-11.64382 8.8125,-12.83812 29.968,-29.8793 3.1425,-2.53141 8.6508,-5.7297 13.1494,-8.30685 3.0721,-1.75995 6.0464,-3.85305 9.4356,-4.87707 12.5964,-3.8059 26.0927,-4.90381 39.2387,-4.32521 4.3936,0.19337 8.0734,1.06401 12.9364,2.5921 4.8629,1.5281 7.5162,2.56777 11.1368,4.18626 12.3554,5.52313 24.074,10.28774 35.9904,18.79181 6.5829,4.69783 15.8829,12.29956 20.6667,16.89273 4.7837,4.59316 10.4297,9.99316 12.5465,12 2.1169,2.00683 7.1878,7.84879 11.2686,12.98212 4.0809,5.13334 14.1174,15.9805 22.3034,24.10481 12.4206,12.32704 16.8793,15.8022 26.9432,21 11.7759,6.08201 12.3463,6.22853 24.2473,6.22853 17.9007,0 21.2796,-2.33633 30.7146,-21.23775 0,0 3.8825,-7.40468 4.8435,-11.42927 2.2688,-9.50123 1.9899,-29.2374 1.9899,-29.2374 1.872,-27.50536 0.982,-23.92196 3.3339,-35.60935 0.6192,-3.07693 1.1865,-6.30271 2.8169,-8.9846 4.9552,-8.15062 14.5649,-16.30205 20.3007,-20.1683 8.0034,-5.39484 3.5692,-2.5237 5.4631,-3.60813 4.4965,-2.57474 8.0718,-4.5067 13.9536,-6.85043 9.0078,-3.58933 12.586,-4.2907 22.69,-4.44758 6.9186,-0.10743 10.1203,-0.0972 14.8847,1.35994 7.7245,2.36252 11.2662,4.06085 16.5983,6.98181 8.5021,4.33748 23.4517,17.6106 36.635,32.52673 11.6435,13.17401 12.8429,14.99288 16.8524,27.56054 10.3634,32.48377 7.2174,57.47344 -8.6505,78.20521 -7.6637,10.01284 -20.0337,22.01306 -28.4498,27.59931 -3.7907,2.51612 -7.5405,6.40254 -11.3093,9.6056 -3.4374,2.92145 -6.9535,5.75288 -10.3094,8.76763 -7.5892,6.81778 -15.7125,13.01808 -22.2041,21.06382 -11.0576,13.70469 -23.8861,28.12866 -26.8717,45.48303 -1.4079,8.18414 0.053,16.52954 4.2161,24.45106 5.4373,10.34723 15.2493,19.39418 25.3654,26.08372 2.6252,1.73597 5.7697,2.57733 8.8056,3.40694 l 9.0662,2.47747 c 5.7319,1.56631 5.5602,1.66001 8.3865,2.30686 5.8145,1.3308 11.7506,2.0656 17.6004,3.23125 11.815,2.35427 24.4813,2.3184 35.3342,7.59782 7.7693,3.77937 10.9684,6.6523 14.9682,11.51259 7.4127,9.00751 13.8304,19.79696 15.5992,31.32757 1.9118,12.46284 -1.0247,24.15726 -5.9357,37.35729 -1.9099,5.1333 -2.8009,9.1091 -4.9542,13.3333 -6.4235,12.601 -13.6391,25.1914 -23.5049,35.3261 -5.9218,6.0834 -13.3168,10.6965 -20.8171,14.6739 -3.1612,1.6763 -6.619,2.7504 -10.0418,3.7933 -5.7813,1.7613 -11.6407,3.5162 -17.6521,4.1385 -6.3028,0.6526 -13.0646,0.3059 -19.0041,-0.4556 -3.8653,-0.4955 -5.6917,-0.9332 -13.7644,-3.2882 -3.2896,-0.9596 -9.6767,-3.3647 -14.3615,-5.4357 -4.6848,-2.071 -6.7044,-3.2735 -9.7169,-5.4433 -15.0022,-10.8058 -28.754,-23.4954 -41.0429,-37.309 -4.2337,-4.759 -8.194,-11.7597 -11.1198,-15.5402 -2.9257,-3.7803 -7.1195,-10.057 -9.3195,-13.9482 -2.2,-3.89109 -6.7,-10.02012 -10,-13.62005 -21.5998,-23.5629 -22.9133,-26.47483 -47.9329,-28.46026 -14.6507,-1.16261 -38.7469,9.6654 -44.2433,18.32022 -9.9175,15.61625 -14.305,17.34162 -14.5336,57.24849 -0.2041,35.6404 0.2747,43.0606 -3.3872,50.9593 -6.375,13.7512 -15.1708,21.3173 -21.3353,24.718 -2.937,1.6202 -7.0629,3.3072 -10.8383,4.1522 -8.5775,1.9195 -18.5994,2.0292 -26.2958,1.9619 -7.6965,-0.067 -13.288,-0.8207 -19.8198,-2.0193 z m 45.3505,-8.9779 c 3.1363,-1.3964 8.2002,-3.564 11.2531,-4.8168 10.2636,-4.2118 17.8005,-15.167 19.7925,-28.769 0.4934,-3.3687 0.2061,-16.2215 -0.6384,-28.5618 -1.1586,-16.9305 -1.1584,-24.7531 7e-4,-31.875 2.9531,-18.14407 9.5226,-34.05121 17.3512,-42.01317 3.7555,-3.81951 21.7938,-12.07133 32.3822,-14.8136 11.918,-3.08659 27.3043,-2.51654 35.5602,1.31748 11.0585,5.13551 20.1246,11.27737 25.5332,17.29745 5.8147,6.47203 19.4682,24.74617 24.4677,32.74804 5.8884,9.4247 21.9621,28.6713 33.1188,39.6563 21.1914,20.8656 45.0817,30.9904 72.2145,30.6049 7.4691,-0.1061 11.5762,-1.0706 20.563,-4.8286 17.4286,-7.2884 21.7669,-11.0274 38.581,-33.2515 4.2422,-5.6072 14.856,-27.8175 14.856,-31.0876 0,-1.443 0.4122,-3.0358 0.916,-3.5396 1.16,-1.16 1.6174,-4.25419 2.5994,-17.58442 l -1.2991,-10.7227 -4.1899,-12.50209 c -5.8689,-17.51175 -10.5413,-18.79089 -19.2952,-24.29914 -9.1908,-5.78308 -15.0858,-5.33908 -31.7655,-7.22313 l -16.2457,-1.83502 c -2.0376,-0.23015 -2.9028,-0.45546 -5.999,-1.36188 -3.0962,-0.90642 -8.0055,-2.83663 -12.421,-4.4828 -4.4155,-1.64617 -10.1631,-3.92753 -14.0637,-5.41196 -3.9007,-1.48442 -6.4432,-1.87018 -9.3334,-3.51222 -3.4851,-1.98006 -6.5989,-4.63228 -9.4,-7.49951 -2.9438,-3.01334 -5.462,-6.61673 -7.649,-10.0603 -4.4457,-7.00018 -7.8272,-12.09325 -7.9886,-23.03321 -0.2507,-16.99786 4.3233,-33.3829 12.6437,-45.29243 6.423,-9.1937 23.4795,-27.03358 32.8243,-34.3319 23.1535,-18.08301 46.0361,-38.41854 55.6522,-49.45766 12.4168,-14.25431 15.9791,-30.02082 11.6551,-51.58468 -1.25,-6.23333 -2.7006,-13.73333 -3.2237,-16.66667 -1.2897,-7.23239 -5.5382,-11.90452 -9.2512,-17.28072 -1.2132,-1.75668 -2.8043,-3.21977 -4.2101,-4.82649 -1.7116,-1.95615 -3.3515,-3.97795 -5.1434,-5.86072 -2.6068,-2.73888 -5.4327,-5.26045 -8.1455,-7.89424 -2.3576,-2.2888 -4.5558,-4.75306 -7.0666,-6.87258 -2.1781,-1.8387 -4.6019,-3.36483 -6.9061,-5.04287 -4.6871,-3.41339 -9.0855,-7.26716 -14.0741,-10.22238 -3.58,-2.1208 -5.4774,-3.57394 -11.2866,-5.33333 -11.5762,-3.50604 -8.2477,-2.67201 -13.6375,-2.96273 -5.6783,-0.30628 -11.4586,0.81941 -16.8616,2.59266 -11.3857,3.73672 -26.9009,12.72683 -31.8594,16.654 -2.8046,2.22132 -7.0213,7.71615 -9.3704,12.21075 -4.2328,8.09878 -4.2786,8.39297 -5.1053,32.83865 -0.4589,13.56667 -1.4419,28.00443 -2.1845,32.08391 -1.9914,10.93954 -1.2019,16.21697 -8.5626,26.46813 -5.304,7.3868 -10.7084,12.66764 -14.4187,14.50667 -1.9145,0.94898 -11.7919,4.71934 -17.9389,6.23075 -3.4708,0.8534 -6.7292,2.02985 -10.6055,1.58005 -3.8764,-0.4498 -7.9677,-2.88445 -11.7912,-4.695 -5.5707,-2.63786 -12.138,-6.3275 -16.1777,-8.95509 -4.0397,-2.62759 -6.6364,-4.5292 -8.3119,-6.28999 0,0 -13.3796,-12.94474 -19.5058,-19.93887 -1.764,-2.01391 -4.9514,-6.32389 -4.9514,-6.32389 0,0 -5.0404,-6.84894 -8.5949,-11.52116 -3.5545,-4.67222 -9.3035,-12.73835 -12.7798,-16.47398 -3.4763,-3.73563 -3.7518,-3.41925 -7.2675,-6.52579 -3.5157,-3.10653 -9.0236,-8.31413 -13.8715,-12.06129 -2.7553,-2.12966 -5.6705,-4.05115 -8.6204,-5.9018 -5.3239,-3.33998 -10.7606,-6.51842 -16.3601,-9.37246 -6.1748,-3.14733 -14.924,-7.04805 -18.9637,-8.52583 0,0 -8.3947,-3.62558 -12.8533,-4.44708 -11.1227,-2.04937 -22.686,-2.42752 -33.9133,-1.06244 -2.6295,0.31971 -5.1304,1.33256 -7.6517,2.14489 -2.463,0.79356 -4.9074,1.65806 -7.2921,2.66252 -2.0849,0.87817 -4.1515,1.8192 -6.1195,2.93506 -2.3167,1.31355 -4.4817,2.88065 -6.6636,4.4077 -2.1764,1.5233 -4.4433,2.95065 -6.4071,4.73979 -12.0141,10.94557 -25.4183,21.71264 -32.5123,36.3352 -6.3023,12.99082 -7.4382,23.54383 -7.4756,42.66667 -0.035,18.05715 0.1898,19.8174 3.4107,26.66667 4.1234,8.76855 14.0428,18.93642 23.2181,23.79972 6.5166,3.45406 7.3721,3.55073 38,4.29418 17.7273,0.4303 33.8278,1.45402 37.0777,2.3575 18.3962,5.11416 34.8365,17.6714 42.3818,32.37155 3.3421,6.51113 3.677,8.45293 3.61,20.92806 -0.075,14.06083 -0.5488,15.99845 -7.7134,31.58232 -4.2262,9.1923 -21.7383,31.17697 -35.0487,44 -42.0136,40.47523 -65.5852,64.59865 -68.2443,69.84198 -1.6296,3.21309 -3.8023,8.61309 -4.8283,12 -2.6894,8.87807 -2.2353,27.09227 0.921,36.93947 6.777,21.1437 23.5532,45.6335 37.0317,54.059 3.9532,2.4711 7.125,5.6074 10.9998,7.9378 2.0456,1.2303 4.268,2.14 6.4237,3.1653 2.4471,1.164 4.8706,2.3895 7.389,3.3898 2.5994,1.0323 6.4537,2.6758 7.9486,2.6871 1.495,0.011 3.6181,0.602 4.7181,1.3129 1.1,0.7109 9.0339,1.3017 17.631,1.3129 12.5155,0.016 16.7675,-0.4857 21.3333,-2.5187 z"
       id="path210-5"
       inkscape:label="Wheel2Border"
       sodipodi:nodetypes="aaaaaaaaaasasassaacsssasaaasaaassssssssscasaasassscssssaasssassaasaasaaaaasssaassssssssazassssssssssssssssccsasszzzaasssssssaaaaaaassassssssazazsaczzzaaasaaaaaaaasssssssssssssaaassss" />
    <path
       style="fill:#1f1dc7"
       d="m 1462.7566,465.81175 c 0,-2.66667 0.6666,-3.33333 3.3333,-3.33333 2.6667,0 3.3333,0.66666 3.3333,3.33333 0,2.66667 -0.6666,3.33333 -3.3333,3.33333 -2.6667,0 -3.3333,-0.66666 -3.3333,-3.33333 z"
       id="path2-5"
       inkscape:label="Wheel2Shaft" />
  </g>
  <g
     inkscape:groupmode="layer"
     id="layer1"
     inkscape:label="Wheel1">
    <path
       style="fill:#000000"
       d="m 496.72179,1113.3398 c -2.52977,-0.4642 -5.02294,-1.1541 -7.45383,-1.9944 -3.85118,-1.3311 -7.6172,-2.9406 -11.23944,-4.8069 -3.8705,-1.9942 -7.72238,-4.1178 -11.15373,-6.7979 -11.92077,-9.3111 -22.85644,-20.0581 -32.29725,-31.8764 -2.62513,-3.2862 -4.65272,-7.0211 -6.66075,-10.7168 -1.44723,-2.6636 -2.75386,-5.4113 -3.86805,-8.2305 -0.84082,-2.1275 -1.60028,-4.2998 -2.11591,-6.5286 -1.4672,-6.3418 -2.72582,-12.824 -2.74991,-19.3333 -0.0429,-11.5932 0.35374,-23.69782 4.64268,-34.46857 3.9312,-9.87236 5.39037,-11.60221 18.627,-25.87076 8.27726,-8.92256 11.57306,-11.82211 17.51913,-17.57115 8.43274,-8.15331 12.94228,-11.53805 25.74226,-23.99218 22.30349,-21.70085 31.98672,-31.68437 43.35098,-50.83693 2.69364,-4.53967 5.12419,-12.59305 5.65193,-14.79305 2.39988,-10.0045 6.06573,-17.39209 0.5099,-29.66947 -4.33268,-9.57445 -15.5766,-20.48385 -26.49254,-26.60578 -8.059,-4.51969 -17.80118,-5.22246 -26.95964,-6.44626 -13.00184,-1.73737 -29.06666,-0.67171 -39.33333,-1.21873 0,0 -11.03568,-0.61893 -16.21231,-2.35811 -3.77199,-1.26726 -7.30025,-3.33691 -10.45435,-5.76292 -7.40075,-5.69236 -14.71727,-12.14053 -19.36353,-20.23906 -2.21906,-3.86786 -3.46726,-5.78944 -4.42178,-8.98949 -2.42832,-8.14102 -3.8502,-9.67827 -3.11753,-25.29501 0.44821,-9.55341 1.01741,-14.30367 2.17271,-21.36985 0.76858,-4.70089 1.66925,-9.41188 3.15755,-13.93671 2.51499,-7.64624 5.14249,-15.4757 9.68617,-22.11988 7.96273,-11.64382 8.81255,-12.83812 29.96799,-29.8793 3.14258,-2.53141 8.65084,-5.7297 13.14943,-8.30685 3.07211,-1.75995 6.04646,-3.85305 9.43565,-4.87707 12.59637,-3.8059 26.09262,-4.90381 39.23867,-4.32521 4.39358,0.19337 8.07343,1.06401 12.93636,2.5921 4.86293,1.5281 7.51626,2.56777 11.13686,4.18626 12.35537,5.52313 24.07394,10.28774 35.9904,18.79181 6.58292,4.69783 15.88292,12.29956 20.66666,16.89273 4.78374,4.59316 10.42969,9.99316 12.54656,12 2.11687,2.00683 7.18773,7.84879 11.26858,12.98212 4.08085,5.13334 14.11737,15.9805 22.30337,24.10481 12.42065,12.32704 16.87932,15.8022 26.94322,21 11.77588,6.08201 12.34627,6.22853 24.24732,6.22853 17.90066,0 21.27952,-2.33633 30.71459,-21.23775 0,0 3.88247,-7.40468 4.84348,-11.42927 2.26875,-9.50123 1.9899,-29.2374 1.9899,-29.2374 1.87201,-27.50536 0.98197,-23.92196 3.33393,-35.60935 0.6192,-3.07693 1.18646,-6.30271 2.81691,-8.9846 4.95516,-8.15062 14.56489,-16.30205 20.30061,-20.1683 8.00345,-5.39484 3.56925,-2.5237 5.46311,-3.60813 4.49654,-2.57474 8.07186,-4.5067 13.95368,-6.85043 9.00778,-3.58933 12.58591,-4.2907 22.68991,-4.44758 6.91868,-0.10743 10.12039,-0.0972 14.88479,1.35994 7.7245,2.36252 11.26612,4.06085 16.59822,6.98181 8.50216,4.33748 23.45175,17.6106 36.63503,32.52673 11.64355,13.17401 12.84289,14.99288 16.8524,27.56054 10.36341,32.48377 7.21739,57.47344 -8.65049,78.20521 -7.66373,10.01284 -20.03372,22.01306 -28.44976,27.59931 -3.7907,2.51612 -7.54056,6.40254 -11.30931,9.6056 -3.43741,2.92145 -6.95356,5.75288 -10.30944,8.76763 -7.58924,6.81778 -15.71247,13.01808 -22.20414,21.06382 -11.05755,13.70469 -23.88605,28.12866 -26.87163,45.48303 -1.40797,8.18414 0.0534,16.52954 4.21607,24.45106 5.43731,10.34723 15.24933,19.39418 25.3654,26.08372 2.62517,1.73597 5.76968,2.57733 8.80561,3.40694 l 9.06621,2.47747 c 5.73186,1.56631 5.56022,1.66001 8.38645,2.30686 5.81452,1.3308 11.75059,2.0656 17.60045,3.23125 11.81501,2.35427 24.48127,2.3184 35.33422,7.59782 7.76929,3.77937 10.96837,6.6523 14.96813,11.51259 7.41271,9.00751 13.83044,19.79696 15.59922,31.32757 1.91178,12.46284 -1.02465,24.15726 -5.93571,37.35729 -1.90986,5.1333 -2.80086,9.1091 -4.95418,13.3333 -6.42353,12.601 -13.63911,25.1914 -23.50486,35.3261 -5.92185,6.0834 -13.31682,10.6965 -20.81717,14.6739 -3.16115,1.6763 -6.61901,2.7504 -10.0418,3.7933 -5.78122,1.7613 -11.64063,3.5162 -17.65208,4.1385 -6.30283,0.6526 -13.06457,0.3059 -19.00408,-0.4556 -3.86527,-0.4955 -5.69174,-0.9332 -13.76438,-3.2882 -3.28958,-0.9596 -9.67676,-3.3647 -14.36152,-5.4357 -4.68476,-2.071 -6.70441,-3.2735 -9.71687,-5.4433 -15.00223,-10.8058 -28.75406,-23.4954 -41.04293,-37.309 -4.23368,-4.759 -8.194,-11.7597 -11.11976,-15.5402 -2.92575,-3.7803 -7.11955,-10.057 -9.31955,-13.9482 -2.2,-3.89109 -6.7,-10.02012 -10,-13.62005 -21.59975,-23.5629 -22.91329,-26.47483 -47.93288,-28.46026 -14.65074,-1.16261 -38.7469,9.6654 -44.24336,18.32022 -9.91749,15.61625 -14.30494,17.34162 -14.53352,57.24849 -0.20414,35.6404 0.27464,43.0606 -3.38722,50.9593 -6.37504,13.7512 -15.17083,21.3173 -21.33533,24.718 -2.93701,1.6202 -7.06286,3.3072 -10.83828,4.1522 -8.57747,1.9195 -18.59936,2.0292 -26.29582,1.9619 -7.69646,-0.067 -13.28803,-0.8207 -19.81975,-2.0193 z m 45.3505,-8.9779 c 3.13628,-1.3964 8.20014,-3.564 11.25302,-4.8168 10.26362,-4.2118 17.80057,-15.167 19.79259,-28.769 0.49335,-3.3687 0.20606,-16.2215 -0.63841,-28.5618 -1.1586,-16.9305 -1.15842,-24.7531 7.1e-4,-31.875 2.95304,-18.14407 9.52258,-34.05121 17.35115,-42.01317 3.75553,-3.81951 21.79384,-12.07133 32.38225,-14.8136 11.91791,-3.08659 27.30421,-2.51654 35.56014,1.31748 11.05848,5.13551 20.12464,11.27737 25.53324,17.29745 5.81464,6.47203 19.46813,24.74617 24.46763,32.74804 5.88847,9.4247 21.9622,28.6713 33.11884,39.6563 21.19142,20.8656 45.08167,30.9904 72.21449,30.6049 7.46917,-0.1061 11.57626,-1.0706 20.56302,-4.8286 17.42862,-7.2884 21.7669,-11.0274 38.58096,-33.2515 4.24224,-5.6072 14.85602,-27.8175 14.85602,-31.0876 0,-1.443 0.41222,-3.0358 0.91605,-3.5396 1.15999,-1.16 1.61738,-4.25419 2.59936,-17.58442 l -1.29912,-10.7227 -4.18992,-12.50209 c -5.86885,-17.51175 -10.54122,-18.79089 -19.29517,-24.29914 -9.19073,-5.78308 -15.08579,-5.33908 -31.76551,-7.22313 l -16.24568,-1.83502 c -2.03758,-0.23015 -2.90279,-0.45546 -5.99897,-1.36188 -3.09618,-0.90642 -8.00548,-2.83663 -12.42099,-4.4828 -4.41551,-1.64617 -10.16311,-3.92753 -14.06378,-5.41196 -3.90067,-1.48442 -6.44312,-1.87018 -9.33333,-3.51222 -3.48517,-1.98006 -6.59897,-4.63228 -9.40005,-7.49951 -2.94381,-3.01334 -5.46197,-6.61673 -7.64896,-10.0603 -4.44575,-7.00018 -7.82726,-12.09325 -7.98862,-23.03321 -0.2507,-16.99786 4.3233,-33.3829 12.64371,-45.29243 6.42304,-9.1937 23.47953,-27.03358 32.82432,-34.3319 23.15352,-18.08301 46.03605,-38.41854 55.65215,-49.45766 12.41684,-14.25431 15.97914,-30.02082 11.65509,-51.58468 -1.24993,-6.23333 -2.70058,-13.73333 -3.22366,-16.66667 -1.28972,-7.23239 -5.53819,-11.90452 -9.25117,-17.28072 -1.21322,-1.75668 -2.80436,-3.21977 -4.21016,-4.82649 -1.71153,-1.95615 -3.35147,-3.97795 -5.1434,-5.86072 -2.60673,-2.73888 -5.43265,-5.26045 -8.14552,-7.89424 -2.35751,-2.2888 -4.55573,-4.75306 -7.06652,-6.87258 -2.17813,-1.8387 -4.60197,-3.36483 -6.90615,-5.04287 -4.68704,-3.41339 -9.08545,-7.26716 -14.07407,-10.22238 -3.58006,-2.1208 -5.47743,-3.57394 -11.28659,-5.33333 -11.57623,-3.50604 -8.2477,-2.67201 -13.63753,-2.96273 -5.67833,-0.30628 -11.45856,0.81941 -16.86161,2.59266 -11.3857,3.73672 -26.90089,12.72683 -31.85936,16.654 -2.80463,2.22132 -7.02133,7.71615 -9.37042,12.21075 -4.23282,8.09878 -4.27856,8.39297 -5.10535,32.83865 -0.45884,13.56667 -1.44186,28.00443 -2.18447,32.08391 -1.99141,10.93954 -1.20189,16.21697 -8.56257,26.46813 -5.30398,7.3868 -10.70845,12.66764 -14.41869,14.50667 -1.91457,0.94898 -11.79192,4.71934 -17.93889,6.23075 -3.47083,0.8534 -6.72921,2.02985 -10.60556,1.58005 -3.87635,-0.4498 -7.9677,-2.88445 -11.79121,-4.695 -5.57062,-2.63786 -12.13797,-6.3275 -16.17768,-8.95509 -4.03971,-2.62759 -6.63639,-4.5292 -8.31187,-6.28999 0,0 -13.37963,-12.94474 -19.50585,-19.93887 -1.76401,-2.01391 -4.95141,-6.32389 -4.95141,-6.32389 0,0 -5.04036,-6.84894 -8.59487,-11.52116 -3.55451,-4.67222 -9.30352,-12.73835 -12.77979,-16.47398 -3.47627,-3.73563 -3.75182,-3.41925 -7.2675,-6.52579 -3.51569,-3.10653 -9.02356,-8.31413 -13.87149,-12.06129 -2.75527,-2.12966 -5.67048,-4.05115 -8.6204,-5.9018 -5.3239,-3.33998 -10.76061,-6.51842 -16.36006,-9.37246 -6.17487,-3.14733 -14.92408,-7.04805 -18.96373,-8.52583 0,0 -8.39472,-3.62558 -12.85329,-4.44708 -11.12276,-2.04937 -22.68601,-2.42752 -33.91331,-1.06244 -2.62951,0.31971 -5.13045,1.33256 -7.65169,2.14489 -2.46299,0.79356 -4.90738,1.65806 -7.29213,2.66252 -2.08494,0.87817 -4.15154,1.8192 -6.11953,2.93506 -2.31665,1.31355 -4.48169,2.88065 -6.66352,4.4077 -2.17648,1.5233 -4.44338,2.95065 -6.40718,4.73979 -12.01408,10.94557 -25.41826,21.71264 -32.51223,36.3352 -6.30235,12.99082 -7.4382,23.54383 -7.47563,42.66667 -0.0353,18.05715 0.1898,19.8174 3.41067,26.66667 4.12342,8.76855 14.04282,18.93642 23.21816,23.79972 6.51659,3.45406 7.37206,3.55073 38,4.29418 17.72726,0.4303 33.82773,1.45402 37.07766,2.3575 18.39619,5.11416 34.83651,17.6714 42.38183,32.37155 3.34204,6.51113 3.67699,8.45293 3.60997,20.92806 -0.0755,14.06083 -0.54876,15.99845 -7.71344,31.58232 -4.22616,9.1923 -21.73829,31.17697 -35.04868,44 -42.01357,40.47523 -65.58515,64.59865 -68.24431,69.84198 -1.62952,3.21309 -3.80222,8.61309 -4.82823,12 -2.68945,8.87807 -2.23536,27.09227 0.92092,36.93947 6.77707,21.1437 23.55322,45.6335 37.03178,54.059 3.95313,2.4711 7.12495,5.6074 10.99976,7.9378 2.0456,1.2303 4.26803,2.14 6.42367,3.1653 2.44712,1.164 4.87059,2.3895 7.38907,3.3898 2.59934,1.0323 6.45365,2.6758 7.94859,2.6871 1.49494,0.011 3.61808,0.602 4.71808,1.3129 1.1,0.7109 9.03394,1.3017 17.63099,1.3129 12.51555,0.016 16.76754,-0.4857 21.33334,-2.5187 z"
       id="path210"
       inkscape:label="Wheel1Border"
       sodipodi:nodetypes="aaaaaaaaaasasassaacsssasaaasaaassssssssscasaasassscssssaasssassaasaasaaaaasssaassssssssazassssssssssssssssccsasszzzaasssssssaaaaaaassassssssazazsaczzzaaasaaaaaaaasssssssssssssaaassss" />
    <path
       id="path208"
       style="fill:#a94f36"
       inkscape:label="Wheel1Infill"
       d="M 797.72266 613.58594 C 791.00907 613.90614 795.18926 630.70968 797.95703 640.23438 C 801.89982 660.00677 792.87534 679.16882 785.69531 696.23438 C 777.98987 713.24577 763.37761 729.44974 747.14844 740.52539 C 731.22608 759.64991 701.87819 767.86321 680.63867 752.58008 C 677.61848 753.22735 674.64325 753.50851 671.70508 753.55273 C 669.21614 754.19751 666.72027 754.76516 663.89648 754.4375 C 660.2386 754.01305 656.40264 751.83152 652.76758 750.06445 C 645.61708 747.35933 638.88309 743.25443 632.58789 738.48828 C 630.77965 737.21555 629.29055 736.05507 628.22461 735.02344 C 622.47375 730.23489 617.12263 725.02887 612.34375 719.88086 C 601.00258 707.933 592.8343 693.66949 582.58398 681.23242 C 582.57085 681.21752 582.5541 681.19059 582.54102 681.17578 C 582.53603 681.16973 582.53038 681.16425 582.52539 681.1582 C 582.09713 680.63929 581.61563 680.16651 581.17969 679.6543 C 578.442 676.80252 577.73988 676.5602 574.51758 673.71289 C 571.00189 670.60636 565.49246 665.3995 560.64453 661.65234 C 553.46098 656.82186 545.97866 652.0563 538.22266 647.76953 C 537.80647 647.5483 537.39842 647.31155 536.98047 647.09375 C 536.28345 646.71476 535.57063 646.3685 534.86914 645.99805 C 528.75214 642.92099 520.58458 639.27219 516.70117 637.85156 C 516.70117 637.85156 515.51284 637.37962 515.0918 637.20312 C 508.89097 634.99976 502.55314 633.27353 496.05664 632.27148 C 488.24367 631.39113 480.31891 631.3673 472.51367 632.12891 C 460.2098 634.20506 448.5957 639.5358 438.75781 647.23047 C 438.07794 647.62284 437.43066 648.06018 436.76367 648.4707 C 436.44788 648.73107 436.1036 648.95653 435.80078 649.23242 C 426.04626 658.1194 415.43258 666.92555 407.9668 677.73633 C 402.62862 686.64855 398.90535 696.51083 396.97852 706.79102 C 396.47548 710.51433 396.17169 714.65363 396.02148 719.14062 C 404.43841 724.68427 426.24546 702.4435 441.40234 705.60156 C 454.23062 705.19443 464.29109 705.96123 475.38672 708.8125 C 485.58915 707.32141 499.20855 716.45778 510.5332 721.11719 C 526.09657 730.33409 538.15032 741.71047 550.01172 755.45117 C 555.34298 771.2892 565.72165 785.16876 558.48828 801.38672 C 551.55993 816.92079 547.72978 832.88392 543.08398 848.66602 C 542.46499 855.02334 540.80416 859.34305 535.79688 870.23438 C 533.28607 875.69562 525.97459 885.64127 517.75195 895.5293 C 516.69016 896.82073 515.60367 898.09167 514.51758 899.36328 C 512.71112 901.46121 511.00978 903.40528 509.18945 905.39453 C 493.99618 922.24695 477.05278 937.65941 460.73047 953.49805 C 448.18167 966.09269 439.02548 975.65556 435.04492 980.5625 C 430.05872 988.39028 427.14288 997.38054 426.16992 1006.6562 C 425.83268 1012.3038 425.96709 1018.5623 426.73242 1024.1992 C 426.81941 1024.7109 426.88495 1025.2247 426.98438 1025.7344 C 427.11096 1026.5363 427.24151 1027.3298 427.39062 1028.0898 C 433.21834 1048.563 445.03561 1069.1214 461.31445 1083.8496 C 462.77308 1085.052 464.22669 1086.1977 465.62891 1087.0742 C 469.58203 1089.5453 472.7541 1092.6813 476.62891 1095.0117 C 478.6745 1096.242 480.8971 1097.1524 483.05273 1098.1777 C 484.70168 1098.9621 486.36748 1099.7104 488.03125 1100.4629 C 502.97824 1104.7298 481.3033 1062.134 490.23242 1052.2344 C 494.92252 1036.1849 499.98586 1021.5418 508.44922 1007.7969 C 522.46394 991.02111 536.5543 973.11455 555.32812 961.00195 C 571.42302 945.36454 597.56552 952.26394 612.54688 956.24609 C 621.23235 952.5603 630.5248 951.12775 639.68359 951.62891 C 646.67811 951.72223 653.28836 952.74722 657.77344 954.83008 C 658.9696 955.38557 660.04202 955.9927 661.18945 956.57031 C 669.41654 960.03452 676.92928 965.21432 683.06836 971.89844 C 683.13786 971.97454 683.2383 972.05089 683.30664 972.12695 C 683.51743 972.36158 683.88462 972.83697 684.11523 973.10156 C 684.68482 973.75555 685.27924 974.38343 685.82227 975.06445 C 686.11354 975.43129 686.39139 975.82833 686.68164 976.19727 C 692.74408 983.60209 701.50868 995.4037 706.29492 1002.6797 C 712.38305 1011.0981 718.63342 1019.4374 725.21484 1027.4062 C 730.56974 1033.6663 736.15458 1039.8661 740.89258 1044.5312 C 742.99754 1046.6039 745.15179 1048.4887 747.31055 1050.3496 C 748.88338 1051.6844 750.48302 1052.9843 752.11719 1054.2402 C 752.64961 1054.6533 753.18504 1055.0544 753.7207 1055.4551 C 755.78557 1056.9879 757.88293 1058.4778 760.05469 1059.8711 C 767.32292 1064.5341 775.21664 1068.3767 783.92188 1071.125 C 792.86154 1073.8417 802.21242 1075.129 811.96875 1075.0977 C 818.74574 1074.66 825.44635 1073.3098 831.83398 1071.0254 C 832.59857 1070.7519 833.33642 1070.4097 834.0918 1070.1113 C 837.57897 1068.6454 840.39263 1067.3087 843.03516 1065.9336 C 847.3968 1063.501 851.48152 1060.5815 855.27344 1057.3027 C 859.32592 1053.4379 863.88977 1047.8691 869.66992 1040.3359 C 871.31445 1037.4932 874.4558 1032.8335 877.74219 1027.5781 C 881.44873 1020.4838 885.41258 1011.9309 886.67578 1007.875 C 886.8606 1004.3515 885.06266 1002.2124 879.6875 1002.8633 C 858.84539 1005.9426 836.91268 1009.1247 817.77539 998.18164 C 802.46336 994.19126 789.81571 984.77062 777.6543 974.01172 C 761.26859 955.86692 741.63034 934.79669 741.77539 908.85156 C 743.80721 894.19332 747.69704 880.31664 751.13867 866.17188 C 751.64227 857.82833 753.301 849.767 755.99023 842.45703 C 756.02544 842.21585 756.07515 841.9819 756.10938 841.74023 C 756.37156 841.17551 756.68559 840.65457 756.95703 840.09766 C 758.7996 835.58463 760.99925 831.35659 763.61719 827.60938 C 765.38203 825.08325 768.02185 821.86916 771.01172 818.43555 C 776.00861 812.34218 781.53908 806.69874 787.38086 801.31641 C 790.7203 798.13022 793.88202 795.27624 796.44141 793.27734 C 796.70032 793.07513 796.9482 792.86292 797.20703 792.66016 C 804.35419 786.6252 811.69906 780.75145 818.97266 774.81641 C 833.25685 762.66598 845.7068 751.15047 852.09375 743.81836 C 856.30032 738.9893 859.40743 733.95998 861.61914 728.61719 C 864.8427 719.96564 865.69839 710.51997 865.06055 700.96875 C 865.04677 700.83671 865.04767 700.71453 865.0332 700.58203 C 865.00524 700.18735 864.92536 699.79332 864.89258 699.39844 C 864.60572 697.07531 864.24307 694.70303 863.74805 692.23438 C 862.52756 686.1479 861.15438 679.03211 860.60156 675.96094 C 860.44573 675.3762 860.28732 674.79674 860.12695 674.2168 C 859.57471 671.94026 858.7498 669.89431 857.73047 668.00977 C 856.74316 666.37147 855.74695 664.73909 854.66602 663.15625 C 854.34103 662.69663 854.02811 662.22289 853.69727 661.76562 C 852.45117 660.0018 851.13779 658.27912 849.78711 656.58203 C 848.87521 655.54472 847.97369 654.50012 847.06445 653.46094 C 845.35292 651.50479 843.71185 649.48238 841.91992 647.59961 C 839.31319 644.86073 836.48826 642.33887 833.77539 639.70508 C 833.59999 639.53479 833.42383 639.36537 833.25 639.19336 C 825.42435 632.11677 816.995 625.62729 808.52344 619.64062 C 808.06623 619.24405 807.69262 618.98082 807.26172 618.62695 C 806.73945 618.29117 806.26326 617.88514 805.72852 617.56836 C 803.13332 616.03098 800.96369 614.83363 798.00586 613.62695 C 797.91966 613.62584 797.80552 613.58199 797.72266 613.58594 z M 640.82227 850.55273 C 641.7419 850.78467 642.94676 851.84699 644.44141 854.23438 C 638.19801 864.14938 636.83718 849.54769 640.82227 850.55273 z " />
    <path
       style="fill:#1f1dc7"
       d="m 637.77462,854.23435 c 0,-2.66667 0.66666,-3.33333 3.33333,-3.33333 2.66667,0 3.33333,0.66666 3.33333,3.33333 0,2.66667 -0.66666,3.33333 -3.33333,3.33333 -2.66667,0 -3.33333,-0.66666 -3.33333,-3.33333 z"
       id="path2"
       inkscape:label="Wheel1Shaft" />
  </g>
</svg>
