<?xml version="1.0" encoding="UTF-8" standalone="no"?>
<!-- Created with Inkscape (http://www.inkscape.org/) -->

<svg
   version="1.1"
   id="svg1"
   width="1729.3333"
   height="1588"
   viewBox="0 0 1729.3333 1588"
   sodipodi:docname="dog9_4_scad_wheel.svg"
   inkscape:version="1.3 (0e150ed6c4, 2023-07-21)"
   inkscape:export-filename="dog9.png"
   inkscape:export-xdpi="96"
   inkscape:export-ydpi="96"
   xmlns:inkscape="http://www.inkscape.org/namespaces/inkscape"
   xmlns:sodipodi="http://sodipodi.sourceforge.net/DTD/sodipodi-0.dtd"
   xmlns="http://www.w3.org/2000/svg"
   xmlns:svg="http://www.w3.org/2000/svg">
  <defs
     id="defs1" />
  <sodipodi:namedview
     id="namedview1"
     pagecolor="#ffffff"
     bordercolor="#000000"
     borderopacity="0.25"
     inkscape:showpageshadow="2"
     inkscape:pageopacity="0.0"
     inkscape:pagecheckerboard="0"
     inkscape:deskcolor="#d1d1d1"
     showgrid="false"
     inkscape:zoom="0.440118"
     inkscape:cx="961.10589"
     inkscape:cy="1140.6032"
     inkscape:window-width="1920"
     inkscape:window-height="1017"
     inkscape:window-x="-8"
     inkscape:window-y="-8"
     inkscape:window-maximized="1"
     inkscape:current-layer="layer2" />
  <g
     inkscape:groupmode="layer"
     id="layer2"
     inkscape:label="Wheel2">
    <path
       id="path1"
       style="fill:#000000"
       d="M 1604.8066 212.90625 C 1594.7028 213.06313 1591.125 213.76419 1582.1172 217.35352 C 1576.2354 219.69723 1572.6606 221.6284 1568.1641 224.20312 C 1566.2702 225.28755 1570.7046 222.41768 1562.7012 227.8125 C 1556.9654 231.67875 1547.3556 239.82987 1542.4004 247.98047 C 1540.77 250.66236 1540.2032 253.88793 1539.584 256.96484 C 1537.2321 268.65221 1538.122 265.06892 1536.25 292.57422 C 1536.25 292.57422 1536.5286 312.30934 1534.2598 321.81055 C 1533.2988 325.83512 1529.416 333.24023 1529.416 333.24023 C 1519.981 352.14163 1516.6019 354.47852 1498.7012 354.47852 C 1486.8002 354.47852 1486.229 354.33199 1474.4531 348.25 C 1464.3892 343.05222 1459.9304 339.57702 1447.5098 327.25 C 1439.3238 319.12571 1429.2879 308.27787 1425.207 303.14453 C 1421.1262 298.01122 1416.0564 292.16894 1413.9395 290.16211 C 1411.8227 288.15527 1406.1763 282.75525 1401.3926 278.16211 C 1396.6088 273.56894 1387.3075 265.96736 1380.7246 261.26953 C 1368.8082 252.76548 1357.0898 248.00163 1344.7344 242.47852 C 1341.1138 240.86003 1338.4606 239.82107 1333.5977 238.29297 C 1328.7347 236.76488 1325.0557 235.89259 1320.6621 235.69922 C 1307.5161 235.12062 1294.0202 236.21949 1281.4238 240.02539 C 1278.0346 241.04941 1275.0604 243.14241 1271.9883 244.90234 C 1267.4897 247.47949 1261.9804 250.67759 1258.8379 253.20898 C 1237.6824 270.25014 1236.8338 271.44409 1228.8711 283.08789 C 1224.3274 289.73205 1221.6986 297.56276 1219.1836 305.20898 C 1217.6953 309.73381 1216.7959 314.44366 1216.0273 319.14453 C 1214.872 326.21069 1214.3017 330.96223 1213.8535 340.51562 C 1213.1209 356.13234 1214.5423 357.66955 1216.9707 365.81055 C 1217.9252 369.01058 1219.1736 370.93097 1221.3926 374.79883 C 1226.0389 382.89734 1233.3551 389.34672 1240.7559 395.03906 C 1243.91 397.46507 1247.4389 399.53352 1251.2109 400.80078 C 1256.3876 402.53996 1267.4238 403.16016 1267.4238 403.16016 C 1277.6905 403.70718 1293.754 402.64154 1306.7559 404.37891 C 1315.9143 405.60271 1325.6578 406.30453 1333.7168 410.82422 C 1344.6327 416.94613 1355.8764 427.85526 1360.209 437.42969 C 1365.7649 449.70705 1362.0991 457.09513 1359.6992 467.09961 C 1359.1715 469.29961 1356.7406 477.35291 1354.0469 481.89258 C 1342.6827 501.0451 1332.9988 511.02966 1310.6953 532.73047 C 1297.8954 545.18458 1293.3858 548.56935 1284.9531 556.72266 C 1279.007 562.47168 1275.7109 565.37043 1267.4336 574.29297 C 1254.197 588.56148 1252.7378 590.29172 1248.8066 600.16406 C 1244.5177 610.93479 1244.1211 623.03963 1244.1641 634.63281 C 1244.1882 641.14211 1245.4469 647.62306 1246.9141 653.96484 C 1247.4297 656.19364 1248.1906 658.36664 1249.0312 660.49414 C 1250.1454 663.31334 1251.4512 666.06101 1252.8984 668.72461 C 1254.9065 672.42031 1256.9335 676.15521 1259.5586 679.44141 C 1268.9994 691.25967 1279.9367 702.00728 1291.8574 711.31836 C 1295.2888 713.99846 1299.1393 716.12105 1303.0098 718.11523 C 1306.632 719.98153 1310.3988 721.59078 1314.25 722.92188 C 1316.6809 723.76216 1319.1734 724.45377 1321.7031 724.91797 C 1328.2349 726.11657 1333.8269 726.86855 1341.5234 726.93555 C 1349.2198 727.00285 1359.2409 726.89411 1367.8184 724.97461 C 1371.5938 724.12961 1375.7212 722.44245 1378.6582 720.82227 C 1384.8227 717.42157 1393.6172 709.85468 1399.9922 696.10352 C 1403.6541 688.20482 1403.1768 680.78487 1403.3809 645.14453 C 1403.6095 605.23774 1407.9966 603.51271 1417.9141 587.89648 C 1423.4105 579.24168 1447.5057 568.41356 1462.1562 569.57617 C 1487.1758 571.5616 1488.4902 574.47425 1510.0898 598.03711 C 1513.3898 601.63704 1517.8898 607.76516 1520.0898 611.65625 C 1522.2898 615.54745 1526.4845 621.82517 1529.4102 625.60547 C 1532.336 629.38595 1536.2956 636.38555 1540.5293 641.14453 C 1552.8182 654.95811 1566.5701 667.64736 1581.5723 678.45312 C 1584.5848 680.62292 1586.6043 681.8255 1591.2891 683.89648 C 1595.9739 685.96748 1602.3608 688.3744 1605.6504 689.33398 C 1613.7231 691.68898 1615.5488 692.12559 1619.4141 692.62109 C 1625.3536 693.38259 1632.1171 693.72877 1638.4199 693.07617 C 1644.4313 692.45387 1650.289 690.6988 1656.0703 688.9375 C 1659.4931 687.8946 1662.9521 686.82083 1666.1133 685.14453 C 1673.6136 681.16715 1681.0079 676.5541 1686.9297 670.4707 C 1696.7955 660.33602 1704.0122 647.74551 1710.4355 635.14453 C 1712.5888 630.92035 1713.4788 626.94578 1715.3887 621.8125 C 1720.2997 608.61249 1723.236 596.9179 1721.3242 584.45508 C 1719.5554 572.92449 1713.1393 562.13444 1705.7266 553.12695 C 1701.7268 548.26668 1698.5271 545.3946 1690.7578 541.61523 C 1679.9049 536.33583 1667.2388 536.36989 1655.4238 534.01562 C 1649.574 532.84999 1643.6368 532.11594 1637.8223 530.78516 C 1634.996 530.13831 1635.1674 530.04481 1629.4355 528.47852 L 1620.3691 526 C 1617.3332 525.17039 1614.1897 524.32972 1611.5645 522.59375 C 1601.4484 515.90423 1591.6365 506.85698 1586.1992 496.50977 C 1582.0361 488.58825 1580.5745 480.24273 1581.9824 472.05859 C 1584.968 454.70426 1597.7979 440.28084 1608.8555 426.57617 C 1615.3471 418.53045 1623.4694 412.32948 1631.0586 405.51172 C 1634.4145 402.49697 1637.9317 399.66559 1641.3691 396.74414 C 1645.1379 393.54108 1648.887 389.65479 1652.6777 387.13867 C 1661.0938 381.55244 1673.4633 369.55188 1681.127 359.53906 C 1696.9947 338.80733 1700.1407 313.81769 1689.7773 281.33398 C 1685.7678 268.76636 1684.5693 266.94741 1672.9258 253.77344 C 1659.7425 238.85733 1644.7931 225.58551 1636.291 221.24805 C 1630.9589 218.32709 1627.4159 216.62814 1619.6914 214.26562 C 1614.927 212.8085 1611.7252 212.79882 1604.8066 212.90625 z M 1466.0898 462.47852 C 1468.7565 462.47852 1469.4238 463.14583 1469.4238 465.8125 C 1469.4238 468.47917 1468.7565 469.14453 1466.0898 469.14453 C 1463.4231 469.14453 1462.7559 468.47917 1462.7559 465.8125 C 1462.7559 463.14583 1463.4231 462.47852 1466.0898 462.47852 z " />
  </g>
</svg>
