<?xml version="1.0" encoding="UTF-8" standalone="no"?>
<!-- Created with Inkscape (http://www.inkscape.org/) -->

<svg
   version="1.1"
   id="svg1"
   width="1729.3333"
   height="1588"
   viewBox="0 0 1729.3333 1588"
   sodipodi:docname="dog9-7.svg"
   inkscape:version="1.3 (0e150ed6c4, 2023-07-21)"
   inkscape:export-filename="dog9.png"
   inkscape:export-xdpi="96"
   inkscape:export-ydpi="96"
   xmlns:inkscape="http://www.inkscape.org/namespaces/inkscape"
   xmlns:sodipodi="http://sodipodi.sourceforge.net/DTD/sodipodi-0.dtd"
   xmlns="http://www.w3.org/2000/svg"
   xmlns:svg="http://www.w3.org/2000/svg">
  <defs
     id="defs1" />
  <sodipodi:namedview
     id="namedview1"
     pagecolor="#ffffff"
     bordercolor="#000000"
     borderopacity="0.25"
     inkscape:showpageshadow="2"
     inkscape:pageopacity="0.0"
     inkscape:pagecheckerboard="0"
     inkscape:deskcolor="#d1d1d1"
     showgrid="false"
     inkscape:zoom="0.67715145"
     inkscape:cx="-342.61169"
     inkscape:cy="992.39247"
     inkscape:window-width="1920"
     inkscape:window-height="1017"
     inkscape:window-x="-8"
     inkscape:window-y="-8"
     inkscape:window-maximized="1"
     inkscape:current-layer="g17" />
  <g
     inkscape:groupmode="layer"
     inkscape:label="Body"
     id="g1">
    <g
       id="g17"
       transform="translate(0,-282)">
      <path
         id="path17"
         style="fill:#000000;stroke-width:1.03441"
         d="m 322.07617,802.5625 c -11.77248,0.25487 -18.5707,1.70639 -33.93555,4.5918 -20.33886,3.81946 -39.53908,12.62001 -65.01562,40.85937 0,0 -13.80669,14.39441 -20.01172,22.1836 -8.86965,11.13406 -17.07731,22.83112 -24.51172,34.9707 -12.48002,20.37857 -23.53901,38.97893 -33.58984,63.33203 -16.54148,40.0801 -16.37168,41.7101 -19.41406,63.6973 -1.52067,10.9897 -0.86494,22.2929 0.69336,33.2773 1.81589,12.8005 1.77286,18.731 10.00976,37.4727 9.10055,20.7063 15.79535,30.4939 41.86328,61.2031 18.81133,22.1605 23.51414,32.095 28.61524,60.4512 1.59898,8.8884 -0.62728,9.9681 2.74609,12.6679 2.26072,1.8093 5.73088,3.225 8.68654,-0.065 3.08573,-3.4344 6.23619,-6.7973 9.44875,-10.0874 62.25388,-63.7566 147.83011,-100.1918 237.69284,-100.3402 134.06216,0.043 254.67005,80.4213 306.60586,203.319 0,0 4.56795,9.2073 8.82854,9.2435 4.59418,0.039 9.68773,-9.8041 9.68773,-9.8041 49.64873,-127.0682 172.14674,-211.3894 309.27825,-211.7445 148.6913,0.041 278.5131,98.4973 319.6241,239.8717 1.7038,5.859 4.2227,10.6542 8.6493,13.7943 5.2355,3.714 11.2105,4.3519 18.7793,4.2633 26.5211,-0.3108 52.1106,-2.7774 70.1133,-7.2887 23.8904,-5.9867 48.2875,-21.174 59.5352,-37.0586 3.1656,-4.4704 3.8751,-6.9181 3.7285,-12.8574 -0.099,-4.0348 0.01,-5.0814 1.0117,-7.3359 0.5914,-1.3266 1.7236,-2.365 2.8125,-3.3262 4.0851,-3.6062 6.2796,-4.1345 13.6953,-8.9258 13.8606,-8.9553 9.7971,-6.1584 14.2735,-9.8007 7.543,-6.1381 14.34,-13.1601 21.0605,-20.1895 2.7769,-2.9045 5.3721,-5.9804 7.9434,-9.0684 2.3279,-2.7956 3.8911,-4.4627 6.7715,-8.5586 2.7686,-3.9364 6.1085,-9.2344 8.6699,-14.1308 11.8113,-22.5789 24.8272,-45.2092 30.7207,-70 4.5328,-19.0671 3.9713,-44.2729 3.1289,-58.7109 -0.9236,-15.8301 1.7083,-19.1677 7.8847,-24.6973 3.6768,-3.2917 6.0093,-3.8954 10.4024,-21.1231 2.5196,-9.8808 -0.5761,-21.346 -10.8984,-34.0312 -8.3709,-10.2872 -15.5544,-17.526 -21.5938,-21.1055 -6.0394,-3.5791 -7.4707,-3.3775 -11.4785,-3.8301 -2.84,-0.3207 -3.2476,-0.1108 -8.5332,0.8321 -5.2856,0.9429 -17.1595,3.854 -22.5645,6.9062 -5.5009,3.1072 -13.0851,0.4982 -19.539,-0.3847 -7.6901,-1.0521 -13.5252,-3.7886 -22.5489,-5.8106 -16.7591,-3.7556 -20.4543,-5.31239 -30.5566,-8.40038 -3.6399,-1.11262 -7.2839,-2.23927 -10.8203,-3.64649 -12.6289,-5.02527 -24.8548,-8.17056 -35.1016,-19.50585 -5.3088,-5.37879 -11.0412,-17.76639 -15.75,-27.08985 -3.5937,-7.11563 -5.9583,-14.80559 -9.5039,-21.94531 -2.9707,-5.98214 -6.4806,-11.6811 -9.8379,-17.45508 -4.0377,-6.94404 -7.955,-13.97251 -12.3925,-20.66797 -3.3556,-5.06319 -6.8079,-10.09066 -10.7422,-14.71875 -4.0438,-4.75687 -8.5855,-9.08097 -13.1563,-13.33398 -4.5107,-4.19718 -9.13,-8.30173 -14.0566,-12.00196 -8.4723,-6.36326 -14.7005,-12.04232 -26.5606,-17.46484 -23.0235,-10.52672 -48.8271,-15.4418 -72.0215,-16.45898 -11.7109,-0.51358 -11.0565,-0.64812 -16.5898,-1.02149 -7.0005,-0.47237 -14.0227,-0.50322 -21.0332,-0.79101 -5.2325,-0.2148 -10.4644,-0.44746 -15.6953,-0.69727 -5.2677,-0.25157 -10.5294,-0.64917 -15.8008,-0.80664 -11.1636,-0.33348 -22.3353,-0.27227 -33.5039,-0.29297 -12.7816,-0.0237 -25.576,-0.35998 -38.3457,0.19141 -6.4992,0.28063 -12.984,0.88314 -19.4512,1.58593 -11.4968,1.24938 -23.0833,2.18767 -34.3769,4.67579 -21.3884,4.71216 -42.4766,11.15687 -62.7989,19.32226 -13.4126,5.38918 -26.3031,12.1175 -38.748,19.47071 -9.609,5.67759 -19.2099,11.59469 -27.6016,18.95312 -10.58321,9.28024 -20.63034,19.551 -28.24606,31.38867 -6.08901,9.46457 -9.6076,20.38962 -13.47852,30.95703 -2.85797,7.80208 -5.51587,15.73147 -7.16601,23.875 -3.94001,19.44397 -6.32247,30.08865 -6.42969,59.168 -0.0917,24.8603 0.44613,23.0682 -4.08008,33.291 -4.70872,10.6351 -13.46874,19.4638 -22.78711,26.4238 -9.75784,7.2886 -21.92748,10.6841 -33.30469,15.0313 -4.52374,1.7285 -9.18203,3.1005 -13.85351,4.3769 -4.571,1.249 -9.23232,2.1399 -13.84961,3.2051 -5.11678,1.1805 -10.21269,2.4602 -15.35352,3.5312 -14.78123,3.0793 -16.38128,4.6717 -44.52343,8.3204 -5.88497,0.763 -23.22057,1.8682 -38.52149,2.457 -15.30093,0.5887 -20.92843,1.1499 -31.38672,1.8203 -21.17077,1.357 -42.29579,3.455 -63.48633,4.457 -19.7193,0.9324 -44.69079,1.0541 -59.20703,1.4453 -53.71884,1.4477 -141.48964,1.0359 -154.79297,-0.7265 -51.07742,-6.7667 -60.77337,-9.2703 -79.79296,-20.6035 -13.21548,-7.8747 -14.36269,-8.9264 -19.68555,-18.0352 -6.82169,-11.6733 -8.02318,-20.103 -5.41406,-38.0117 1.96122,-13.4618 4.97073,-20.1376 17.95703,-39.8477 4.17946,-6.34352 6.43916,-11.20781 9.89258,-16.66793 1.81811,-2.87464 3.82642,-6.63347 5.69726,-8.4668 1.87085,-1.83333 5.72054,-7.53269 8.55469,-12.66601 2.83419,-5.1333 8.29912,-14.73402 12.14648,-21.33399 13.49091,-23.14311 18.49157,-39.68374 18.54297,-70.66601 0.0351,-21.12261 -0.87024,-21.4292 -5.40625,-31.14258 -5.92617,-12.69024 -10.66282,-16.91034 -18.20898,-23.21875 -3.44423,-2.87929 -7.82948,-4.417 -11.9043,-6.30078 -5.93267,-2.74275 -11.80785,-5.30459 -18.21484,-7.25977 -10.02858,-3.06037 -14.58036,-4.58957 -34.64258,-5.21484 l -0.004,-0.0137 c -5.53131,-0.1724 -10.00748,-0.21973 -13.93164,-0.13477 z"
         sodipodi:nodetypes="sscssssscssassccaccsasssccsscsssssssssssscsssscssssssssssssssssssssssssscssssssssssscsssssssssssccss" />
      <g
         id="g16">
        <path
           style="fill:#1f1dc7;stroke-width:1.03441"
           d="m 461.48013,1459.8341 c 0,-2.4445 0.7609,-3.3333 2.85333,-3.3333 2.09245,0 2.85334,0.8888 2.85334,3.3333 0,2.4444 -0.76089,3.3333 -2.85334,3.3333 -2.09243,0 -2.85333,-0.8889 -2.85333,-3.3333 z"
           id="path11"
           inkscape:label="BodyShaft1" />
        <path
           style="fill:#1f1dc7;stroke-width:1.03441"
           d="m 1096.3468,1449.8341 c 0,-1.7778 0.9511,-2.6667 2.8533,-2.6667 1.9022,0 2.8533,0.8889 2.8533,2.6667 0,1.7778 -0.9511,2.6667 -2.8533,2.6667 -1.9022,0 -2.8533,-0.8889 -2.8533,-2.6667 z"
           id="path1"
           inkscape:label="BodyShaft2" />
      </g>
    </g>
  </g>
  <g
     inkscape:groupmode="layer"
     id="layer1"
     inkscape:label="Wheel1" />
</svg>
