<?xml version="1.0" encoding="UTF-8" standalone="no"?>
<!-- Created with Inkscape (http://www.inkscape.org/) -->

<svg
   version="1.1"
   id="svg1"
   width="1729.3333"
   height="1588"
   viewBox="0 0 1729.3333 1588"
   sodipodi:docname="dog9_4_scad_body.svg"
   inkscape:version="1.3 (0e150ed6c4, 2023-07-21)"
   inkscape:export-filename="dog9.png"
   inkscape:export-xdpi="96"
   inkscape:export-ydpi="96"
   xmlns:inkscape="http://www.inkscape.org/namespaces/inkscape"
   xmlns:sodipodi="http://sodipodi.sourceforge.net/DTD/sodipodi-0.dtd"
   xmlns="http://www.w3.org/2000/svg"
   xmlns:svg="http://www.w3.org/2000/svg">
  <defs
     id="defs1" />
  <sodipodi:namedview
     id="namedview1"
     pagecolor="#ffffff"
     bordercolor="#000000"
     borderopacity="0.25"
     inkscape:showpageshadow="2"
     inkscape:pageopacity="0.0"
     inkscape:pagecheckerboard="0"
     inkscape:deskcolor="#d1d1d1"
     showgrid="false"
     inkscape:zoom="0.440118"
     inkscape:cx="961.10589"
     inkscape:cy="1140.6032"
     inkscape:window-width="1920"
     inkscape:window-height="1017"
     inkscape:window-x="-8"
     inkscape:window-y="-8"
     inkscape:window-maximized="1"
     inkscape:current-layer="g1" />
  <g
     inkscape:groupmode="layer"
     inkscape:label="Body"
     id="g1">
    <path
       id="path3"
       style="fill:#000000;stroke-width:1.03441"
       d="M 1116.2754 622.91211 C 1088.2512 622.75303 1090.6229 623.43491 1077.9297 625.10352 C 1071.3109 625.97358 1064.8202 627.64563 1058.3203 629.16797 C 1051.3256 630.8062 1042.8813 632.93867 1037.4688 634.62109 C 1032.9539 636.02444 1028.4973 637.62417 1024.1016 639.36523 C 1008.5041 645.54324 993.02697 652.09943 978.00781 659.57422 C 973.66267 661.73675 969.4281 664.13047 965.30273 666.6875 C 959.64731 670.19292 953.60454 674.35415 948.82227 677.94727 C 944.03997 681.54036 936.71889 687.03607 932.55469 690.1582 C 919.51149 699.93739 914.79526 706.13823 906.95312 715.11133 C 904.30772 718.13828 901.98458 721.44343 899.76758 724.79688 C 894.29106 733.08068 889.26858 741.89553 884.70703 750.5 C 883.15197 753.43333 881.03009 760.78168 879.91016 766.20508 C 876.63332 782.07347 877.96895 815.53391 880.92383 831.16797 C 883.94168 847.13518 883.91588 847.04859 890.19531 860.5 C 892.76284 865.99997 894.49016 871.11121 897.33008 876.06055 C 899.00721 878.98339 901.1234 881.63508 903.13867 884.33594 C 905.11564 886.98544 907.1216 889.62009 909.29688 892.10938 C 914.5776 898.15238 921.0882 906.53247 925.99219 909.45703 C 927.48876 910.34952 932.22069 913.01713 936.50781 915.38477 C 946.8938 921.12055 954.70738 927.87711 958.0625 934.02344 C 961.66639 940.62443 961.6667 951.68748 958.0625 959.33203 C 954.09657 967.74383 951.74003 989.42065 951.63281 1018.5 C 951.54114 1043.3605 952.07894 1041.5682 947.55273 1051.791 C 942.84399 1062.4261 934.08401 1071.2548 924.76562 1078.2148 C 915.00776 1085.5034 902.83817 1088.8989 891.46094 1093.2461 C 886.93718 1094.9746 882.27892 1096.3466 877.60742 1097.623 C 873.03642 1098.872 868.37512 1099.7629 863.75781 1100.8281 C 858.64103 1102.0086 853.54513 1103.2884 848.4043 1104.3594 C 833.62303 1107.4387 832.02307 1109.031 803.88086 1112.6797 C 797.99589 1113.4427 780.66032 1114.5479 765.35938 1115.1367 C 750.05841 1115.7254 744.43097 1116.2866 733.97266 1116.957 C 712.80185 1118.314 691.67691 1120.4121 670.48633 1121.4141 C 650.76699 1122.3465 625.79556 1122.4682 611.2793 1122.8594 C 557.56034 1124.3071 469.78968 1123.8952 456.48633 1122.1328 C 405.40879 1115.3661 395.71299 1112.8625 376.69336 1101.5293 C 363.47786 1093.6546 362.33069 1092.6029 357.00781 1083.4941 C 350.1861 1071.8208 348.98463 1063.3911 351.59375 1045.4824 C 353.55499 1032.0206 356.56446 1025.3449 369.55078 1005.6348 C 373.73026 999.2912 375.98994 994.42694 379.44336 988.9668 C 381.26149 986.09216 383.26978 982.33333 385.14062 980.5 C 387.01147 978.66667 390.86116 972.96732 393.69531 967.83398 C 396.5295 962.70068 401.99442 953.09997 405.8418 946.5 C 419.33273 923.35683 424.33337 906.81631 424.38477 875.83398 C 424.41982 854.71133 423.51453 854.40481 418.97852 844.69141 C 413.05233 832.00115 408.31571 827.78109 400.76953 821.47266 C 397.3253 818.59337 392.94005 817.05568 388.86523 815.17188 C 382.93254 812.42913 377.0574 809.86729 370.65039 807.91211 C 360.62179 804.85174 356.07007 803.32254 336.00781 802.69727 C 313.88249 802.00767 308.62711 803.30709 288.14062 807.1543 C 267.8017 810.97378 248.6016 819.77425 223.125 848.01367 C 223.125 848.01367 209.31831 862.40808 203.11328 870.19727 C 194.24361 881.33137 186.03597 893.02837 178.60156 905.16797 C 166.12152 925.54658 155.06257 944.14686 145.01172 968.5 C 128.4702 1008.5801 128.64006 1010.2101 125.59766 1032.1973 C 124.07699 1043.187 124.73272 1054.4902 126.29102 1065.4746 C 128.10693 1078.2751 128.06386 1084.2056 136.30078 1102.9473 C 145.40135 1123.6538 152.09607 1133.4412 178.16406 1164.1504 C 196.97543 1186.3109 201.6782 1196.2454 206.7793 1224.6016 C 211.26996 1249.5643 211.14512 1261.6727 206.14844 1285.832 C 203.63004 1298.0086 200.38193 1305.1191 200.38281 1340.498 C 200.3838 1379.8745 203.37034 1381.5585 206.86523 1393.4746 C 210.87793 1407.1562 220.97204 1430.5255 227.74219 1441.8086 C 236.30995 1456.0876 248.16385 1470.6539 262.36523 1484.3535 C 274.27445 1495.8419 280.86784 1500.7488 300.98047 1513.0879 C 314.31978 1521.2716 330.68972 1531.0097 337.35938 1534.7285 C 355.68763 1544.948 385.0692 1553.19 414.40039 1556.3398 C 420.28536 1556.9718 436.5783 1557.5652 450.60742 1557.6602 C 474.18091 1557.8201 479.26464 1557.3814 517.66016 1551.877 C 540.5102 1548.6011 566.58964 1544.3798 575.61328 1542.4961 C 592.00053 1539.0752 620.61188 1535.1492 669.05859 1529.6719 C 692.37275 1527.0361 701.96933 1526.7563 773.20703 1526.6348 C 845.36308 1526.5118 854.02539 1526.7415 880.91992 1529.4844 C 897.00555 1531.1248 929.10438 1534.2749 952.25195 1536.4863 C 975.39955 1538.6977 1002.043 1541.459 1011.459 1542.6211 C 1034.3448 1545.4454 1082.3747 1545.4315 1107.0469 1542.5938 C 1144.347 1538.3033 1169.6082 1532.3828 1188.1836 1523.5762 C 1211.6822 1512.4356 1244.4419 1483.9178 1258.1367 1462.6836 C 1271.3911 1442.1321 1286.7132 1420.3809 1291.0859 1415.9082 C 1292.6553 1414.3031 1296.4575 1410.0302 1299.5352 1406.4121 C 1308.6789 1395.6627 1325.3372 1381.3802 1334.8848 1376.1016 C 1343.5894 1371.289 1344.1595 1371.1675 1358.1074 1371.1875 C 1365.9719 1371.1989 1382.7234 1372.3156 1395.334 1373.668 C 1436.3968 1378.0715 1487.1385 1375.88 1516.916 1368.418 C 1540.8064 1362.4313 1565.2035 1347.2459 1576.4512 1331.3613 C 1579.6168 1326.8907 1580.3263 1324.4413 1580.1797 1318.502 C 1580.0802 1314.4672 1580.1864 1313.4205 1581.1914 1311.166 C 1581.7828 1309.8394 1582.915 1308.801 1584.0039 1307.8398 C 1588.089 1304.2336 1590.2835 1303.7073 1597.6992 1298.916 C 1611.5598 1289.9607 1607.4963 1292.7558 1611.9727 1289.1133 C 1619.5157 1282.9752 1626.3127 1275.9532 1633.0332 1268.9238 C 1635.8101 1266.0193 1638.4053 1262.9435 1640.9766 1259.8555 C 1643.3045 1257.0599 1644.8676 1255.3928 1647.748 1251.2969 C 1650.5166 1247.3603 1653.8566 1242.0624 1656.418 1237.166 C 1668.2293 1214.5871 1681.2452 1191.9568 1687.1387 1167.166 C 1691.6715 1148.0989 1691.11 1122.8933 1690.2676 1108.4551 C 1689.344 1092.625 1691.9757 1089.2874 1698.1523 1083.7578 C 1701.8291 1080.4661 1704.1616 1079.8625 1708.5547 1062.6348 C 1711.0743 1052.754 1707.9787 1041.2887 1697.6562 1028.6035 C 1689.2853 1018.3163 1682.1019 1011.0775 1676.0625 1007.498 C 1670.0231 1003.9189 1668.5918 1004.1225 1664.584 1003.6699 C 1661.744 1003.3492 1661.3364 1003.5571 1656.0508 1004.5 C 1650.7652 1005.4429 1638.8913 1008.354 1633.4863 1011.4062 C 1627.9854 1014.5134 1620.4012 1011.9044 1613.9473 1011.0215 C 1606.2572 1009.9694 1600.4221 1007.2329 1591.3984 1005.2109 C 1574.6391 1001.4553 1570.9441 999.90052 1560.8418 996.8125 C 1557.2019 995.69988 1553.5579 994.57128 1550.0215 993.16406 C 1537.3926 988.13877 1525.1667 984.99353 1514.9199 973.6582 C 1509.6111 968.27941 1503.8787 955.89379 1499.1699 946.57031 C 1495.5762 939.45466 1493.2116 931.76474 1489.666 924.625 C 1486.6953 918.64289 1483.1854 912.94197 1479.8281 907.16797 C 1475.7904 900.22391 1471.8732 893.19546 1467.4355 886.5 C 1464.0799 881.43679 1460.6277 876.40934 1456.6934 871.78125 C 1452.6496 867.02436 1448.1079 862.7003 1443.5371 858.44727 C 1439.0264 854.25009 1434.4071 850.14554 1429.4805 846.44531 C 1421.0082 840.08203 1414.78 834.40299 1402.9199 828.98047 C 1379.8962 818.45373 1354.1151 812.56274 1330.8984 812.52344 C 1319.4839 812.50414 1317.4879 812.13923 1314.3086 809.5 C 1310.2631 806.14177 1307.2032 801.20642 1306.6699 797.17969 C 1303.8842 776.14379 1303.1347 774.39374 1300.252 763.25 C 1298.7414 757.41064 1296.5942 751.75291 1294.5723 746.07031 C 1292.6588 740.69253 1290.2485 733.49999 1288.4688 730.07031 C 1283.9562 721.37518 1272.9672 704.03719 1264.0059 691.85156 C 1262.3814 689.64254 1260.5421 687.59546 1258.7129 685.55273 C 1254.4327 680.77303 1250.0759 676.04766 1245.4277 671.625 C 1240.8514 667.27082 1236.2565 662.86516 1231.082 659.24219 C 1219.2066 650.92746 1206.214 644.2431 1193.1172 638.02734 C 1189.8338 636.46904 1186.3869 635.27933 1182.9785 634.01758 C 1177.2247 631.88757 1171.4987 629.62821 1165.5801 628.01172 C 1160.4168 626.60154 1155.1539 625.49511 1149.8457 624.80859 C 1138.7303 623.37103 1134.8784 623.0177 1116.2754 622.91211 z M 1099.1992 1447.168 C 1101.1014 1447.168 1102.0527 1448.0562 1102.0527 1449.834 C 1102.0527 1451.6118 1101.1014 1452.5 1099.1992 1452.5 C 1097.297 1452.5 1096.3477 1451.6118 1096.3477 1449.834 C 1096.3477 1448.0562 1097.297 1447.168 1099.1992 1447.168 z M 464.33398 1456.5 C 466.42643 1456.5 467.1875 1457.3895 467.1875 1459.834 C 467.1875 1462.2784 466.42643 1463.168 464.33398 1463.168 C 462.24156 1463.168 461.48047 1462.2784 461.48047 1459.834 C 461.48047 1457.3895 462.24156 1456.5 464.33398 1456.5 z " />
  </g>
</svg>
